<?xml version="1.0" encoding="utf-8"?>
<!-- Generator: Adobe Illustrator 24.1.3, SVG Export Plug-In . SVG Version: 6.00 Build 0)  -->
<svg version="1.1" id="Layer_1" xmlns="http://www.w3.org/2000/svg" xmlns:xlink="http://www.w3.org/1999/xlink" x="0px" y="0px"
	 viewBox="0 0 32 32" style="enable-background:new 0 0 32 32;" xml:space="preserve">
<style type="text/css">
	.st0{fill:#212529;}
	.st1{fill:#F8F9FA;}
</style>
<g>
	<g>
		<path d="M78.8-261.2H89c2.3,0,3.5,1.3,3.5,3.6c0,2.3-1.2,3.6-3.5,3.6H78.8V-261.2z M80.1-260.4v5.5h8.6c1.6,0,2.3-1.1,2.3-2.8
			c0-1.6-0.7-2.7-2.3-2.7H80.1z"/>
		<path d="M93.5-261.2h2.9c1.4,0,2.5,0.8,2.5,2.2c0,0.9-0.5,1.6-1.2,1.9l1.5,3.1h-1.6l-1.3-2.7c-0.2,0-0.3,0-0.5,0h-1v2.7h-1.4
			V-261.2z M94.9-260.4v2.9h1.2c0.9,0,1.5-0.5,1.5-1.5c0-0.9-0.6-1.4-1.4-1.4H94.9z"/>
		<path d="M100.3-261.2h1.4v7.2h-1.4V-261.2z"/>
		<path d="M103.7-261.2h2.8c1.6,0,2.6,0.9,2.6,2.3c0,1.5-1,2.4-2.6,2.4h-1.3v2.6h-1.4V-261.2z M105.1-260.4v3h1.2
			c0.9,0,1.4-0.6,1.4-1.5c0-0.9-0.5-1.5-1.4-1.5H105.1z"/>
		<path d="M110-254.1c-0.5,0-0.8-0.4-0.8-0.8c0-0.5,0.3-0.8,0.8-0.8c0.4,0,0.8,0.4,0.8,0.8C110.8-254.4,110.4-254.1,110-254.1z"/>
	</g>
</g>
<g>
	<g>
		<path d="M149.4-263.7H163c3,0,4.6,1.8,4.6,4.8c0,3-1.6,4.8-4.6,4.8h-13.5V-263.7z M151.3-262.6v7.3h11.4c2.1,0,3-1.5,3-3.7
			c0-2.2-0.9-3.6-3-3.6H151.3z"/>
		<path d="M169.3-254.2c-0.6,0-1.1-0.5-1.1-1.1c0-0.6,0.5-1.1,1.1-1.1c0.6,0,1.1,0.5,1.1,1.1C170.4-254.6,169.9-254.2,169.3-254.2z"
			/>
	</g>
</g>
<g>
	<g>
		<path d="M87.7-223v-8.7h2.1v8.7H87.7z M93.1-223l-2.1-3.6l-1.2,1.4v-2.5l3.3-4.1h2.6l-3.2,3.6l3.2,5.1H93.1z"/>
		<path d="M96.5-223v-8.7h2.1v8.7H96.5z"/>
		<path d="M100.2-223v-8.7h3.4l0.9,3.5l0.5,2.2h0.1l0.4-2.2l0.9-3.5h3.4v8.7h-2.1v-3.9l0.1-2.8h-0.1l-0.7,2.6l-1.1,4.1h-1.8
			l-1.1-4.1l-0.6-2.6h-0.1l0,2.8v3.9H100.2z"/>
		<path d="M115.3-222.9c-0.7,0-1.3-0.1-1.8-0.3c-0.5-0.2-1-0.5-1.4-0.9c-0.4-0.4-0.7-0.9-0.9-1.4s-0.3-1.2-0.3-1.9s0.1-1.4,0.3-1.9
			s0.5-1,0.9-1.4c0.4-0.4,0.9-0.7,1.4-0.9c0.5-0.2,1.1-0.3,1.8-0.3c0.7,0,1.3,0.1,1.8,0.3c0.5,0.2,1,0.5,1.4,0.9
			c0.4,0.4,0.7,0.9,0.9,1.4s0.3,1.2,0.3,1.9s-0.1,1.4-0.3,1.9s-0.5,1-0.9,1.4c-0.4,0.4-0.9,0.7-1.4,0.9
			C116.6-223,116-222.9,115.3-222.9z M115.3-224.7c0.4,0,0.8-0.1,1.2-0.3s0.6-0.5,0.8-0.9c0.2-0.4,0.3-0.9,0.3-1.5
			c0-0.5-0.1-0.8-0.2-1.2c-0.1-0.3-0.3-0.6-0.5-0.8s-0.4-0.4-0.7-0.5c-0.3-0.1-0.6-0.2-0.9-0.2c-0.4,0-0.8,0.1-1.2,0.3
			c-0.3,0.2-0.6,0.5-0.8,0.9c-0.2,0.4-0.3,0.9-0.3,1.5c0,0.5,0.1,0.9,0.2,1.2c0.1,0.3,0.3,0.6,0.5,0.8c0.2,0.2,0.4,0.4,0.7,0.5
			C114.7-224.8,115-224.7,115.3-224.7z"/>
	</g>
</g>
<g>
	<g>
		<path d="M91.2-208.8c-0.9,0-1.6-0.2-2.2-0.5s-1-0.8-1.4-1.4c-0.3-0.6-0.5-1.3-0.5-2.2c0-0.8,0.2-1.6,0.5-2.2
			c0.3-0.6,0.8-1.1,1.4-1.4c0.6-0.3,1.3-0.5,2.2-0.5c0.8,0,1.6,0.1,2.1,0.4c0.6,0.3,1,0.6,1.3,1.1c0.3,0.5,0.4,1,0.4,1.7v0.3h-2.4v0
			c0-0.5-0.1-0.8-0.3-1c-0.2-0.2-0.6-0.3-1.1-0.3c-0.4,0-0.7,0-0.9,0.1c-0.2,0.1-0.4,0.3-0.5,0.6c-0.1,0.3-0.1,0.7-0.1,1.3
			c0,0.6,0,1,0.1,1.2c0.1,0.3,0.3,0.5,0.5,0.6c0.2,0.1,0.5,0.1,0.9,0.1c0.6,0,0.9-0.1,1.1-0.3c0.2-0.2,0.3-0.5,0.3-1v0h2.4v0.3
			c0,0.6-0.1,1.2-0.4,1.7s-0.7,0.9-1.3,1.1C92.7-209,92-208.8,91.2-208.8z"/>
		<path d="M97.4-209h-2.3l2.8-8h3.3l2.8,8h-2.5l-1.3-4l-0.6-2.1h-0.2l-0.7,2.1L97.4-209z M102.3-210.5h-5.6v-2h5.6V-210.5z"/>
		<path d="M107.6-208.8c-0.8,0-1.4-0.1-1.9-0.3c-0.5-0.2-0.9-0.5-1.2-1c-0.3-0.4-0.4-0.9-0.4-1.5v-0.2h2.2v0.1c0,0.2,0,0.4,0.1,0.5
			c0.1,0.1,0.2,0.2,0.4,0.2c0.2,0,0.5,0.1,0.8,0.1c0.4,0,0.7,0,0.8-0.1c0.1-0.1,0.2-0.2,0.2-0.4c0-0.1,0-0.2-0.1-0.3
			c0-0.1-0.1-0.1-0.2-0.2s-0.2-0.1-0.4-0.1l-1.8-0.3c-0.5-0.1-1-0.2-1.3-0.5c-0.3-0.2-0.6-0.5-0.7-0.8c-0.2-0.3-0.2-0.7-0.2-1.1
			c0-0.5,0.1-0.9,0.4-1.3c0.2-0.4,0.6-0.7,1.1-0.9c0.5-0.2,1.2-0.3,1.9-0.3c0.8,0,1.4,0.1,1.9,0.3c0.5,0.2,0.9,0.5,1.1,0.9
			c0.2,0.4,0.4,0.8,0.4,1.3v0.2h-2.2v-0.1c0-0.2,0-0.3-0.1-0.4c-0.1-0.1-0.2-0.2-0.4-0.2c-0.2,0-0.4-0.1-0.8-0.1
			c-0.4,0-0.7,0-0.9,0.1c-0.1,0.1-0.2,0.2-0.2,0.3c0,0.1,0,0.1,0.1,0.2c0,0.1,0.1,0.1,0.2,0.1s0.2,0.1,0.4,0.1l1.8,0.3
			c0.6,0.1,1,0.3,1.4,0.5c0.3,0.2,0.6,0.5,0.8,0.8c0.2,0.3,0.2,0.7,0.2,1.1c0,0.5-0.1,0.9-0.3,1.3c-0.2,0.4-0.6,0.7-1.1,1
			S108.4-208.8,107.6-208.8z"/>
		<path d="M113.5-209h-2.3l2.8-8h3.3l2.8,8h-2.5l-1.3-4l-0.6-2.1h-0.2l-0.7,2.1L113.5-209z M118.4-210.5h-5.6v-2h5.6V-210.5z"/>
	</g>
</g>
<g>
	<g>
		<path d="M91.2-195.2c-0.9,0-1.6-0.2-2.2-0.5s-1-0.8-1.4-1.4c-0.3-0.6-0.5-1.3-0.5-2.2c0-0.8,0.2-1.6,0.5-2.2
			c0.3-0.6,0.8-1.1,1.4-1.4c0.6-0.3,1.3-0.5,2.2-0.5c0.8,0,1.6,0.1,2.1,0.4c0.6,0.3,1,0.6,1.3,1.1c0.3,0.5,0.4,1,0.4,1.7v0.3h-2.4v0
			c0-0.5-0.1-0.8-0.3-1c-0.2-0.2-0.6-0.3-1.1-0.3c-0.4,0-0.7,0-0.9,0.1c-0.2,0.1-0.4,0.3-0.5,0.6c-0.1,0.3-0.1,0.7-0.1,1.3
			c0,0.6,0,1,0.1,1.2c0.1,0.3,0.3,0.5,0.5,0.6c0.2,0.1,0.5,0.1,0.9,0.1c0.6,0,0.9-0.1,1.1-0.3c0.2-0.2,0.3-0.5,0.3-1v0h2.4v0.3
			c0,0.6-0.1,1.2-0.4,1.7s-0.7,0.9-1.3,1.1C92.7-195.3,92-195.2,91.2-195.2z"/>
		<path d="M97.4-195.3h-2.3l2.8-8h3.3l2.8,8h-2.5l-1.3-4l-0.6-2.1h-0.2l-0.7,2.1L97.4-195.3z M102.3-196.8h-5.6v-2h5.6V-196.8z"/>
		<path d="M107.6-195.2c-0.8,0-1.4-0.1-1.9-0.3c-0.5-0.2-0.9-0.5-1.2-1c-0.3-0.4-0.4-0.9-0.4-1.5v-0.2h2.2v0.1c0,0.2,0,0.4,0.1,0.5
			c0.1,0.1,0.2,0.2,0.4,0.2c0.2,0,0.5,0.1,0.8,0.1c0.4,0,0.7,0,0.8-0.1c0.1-0.1,0.2-0.2,0.2-0.4c0-0.1,0-0.2-0.1-0.3
			c0-0.1-0.1-0.1-0.2-0.2s-0.2-0.1-0.4-0.1l-1.8-0.3c-0.5-0.1-1-0.2-1.3-0.5c-0.3-0.2-0.6-0.5-0.7-0.8c-0.2-0.3-0.2-0.7-0.2-1.1
			c0-0.5,0.1-0.9,0.4-1.3c0.2-0.4,0.6-0.7,1.1-0.9c0.5-0.2,1.2-0.3,1.9-0.3c0.8,0,1.4,0.1,1.9,0.3c0.5,0.2,0.9,0.5,1.1,0.9
			c0.2,0.4,0.4,0.8,0.4,1.3v0.2h-2.2v-0.1c0-0.2,0-0.3-0.1-0.4c-0.1-0.1-0.2-0.2-0.4-0.2c-0.2,0-0.4-0.1-0.8-0.1
			c-0.4,0-0.7,0-0.9,0.1c-0.1,0.1-0.2,0.2-0.2,0.3c0,0.1,0,0.1,0.1,0.2c0,0.1,0.1,0.1,0.2,0.1s0.2,0.1,0.4,0.1l1.8,0.3
			c0.6,0.1,1,0.3,1.4,0.5c0.3,0.2,0.6,0.5,0.8,0.8c0.2,0.3,0.2,0.7,0.2,1.1c0,0.5-0.1,0.9-0.3,1.3c-0.2,0.4-0.6,0.7-1.1,1
			S108.4-195.2,107.6-195.2z"/>
		<path d="M113.5-195.3h-2.3l2.8-8h3.3l2.8,8h-2.5l-1.3-4l-0.6-2.1h-0.2l-0.7,2.1L113.5-195.3z M118.4-196.8h-5.6v-2h5.6V-196.8z"/>
	</g>
</g>
<g>
	<g>
		<g>
			<path d="M79.1-151.7v-8.7h3.8l0.7,3.1l0.4,2.2H84l0.4-2.2l0.6-3.1h3.8v8.7h-2.4v-3.7l0.1-2.7h-0.1l-0.6,2.5l-0.9,3.9h-2l-0.9-4
				l-0.5-2.5h-0.1l0.1,2.7v3.7H79.1z"/>
			<path d="M93.8-151.6c-0.7,0-1.3-0.1-1.8-0.3c-0.5-0.2-1-0.5-1.4-0.9c-0.4-0.4-0.7-0.8-0.9-1.4c-0.2-0.6-0.3-1.2-0.3-1.9
				s0.1-1.4,0.3-1.9c0.2-0.6,0.5-1,0.9-1.4c0.4-0.4,0.9-0.7,1.4-0.9c0.5-0.2,1.2-0.3,1.8-0.3s1.3,0.1,1.8,0.3c0.5,0.2,1,0.5,1.4,0.9
				c0.4,0.4,0.7,0.8,0.9,1.4c0.2,0.6,0.3,1.2,0.3,1.9s-0.1,1.4-0.3,1.9c-0.2,0.6-0.5,1-0.9,1.4c-0.4,0.4-0.9,0.7-1.4,0.9
				C95-151.7,94.4-151.6,93.8-151.6z M93.8-153.6c0.4,0,0.7-0.1,1-0.3s0.5-0.4,0.7-0.8c0.2-0.4,0.2-0.8,0.2-1.4c0-0.4,0-0.8-0.1-1.1
				c-0.1-0.3-0.2-0.6-0.4-0.8c-0.2-0.2-0.4-0.3-0.6-0.4c-0.2-0.1-0.5-0.1-0.8-0.1c-0.4,0-0.7,0.1-1,0.2s-0.5,0.4-0.7,0.8
				c-0.2,0.4-0.2,0.8-0.2,1.4c0,0.4,0,0.8,0.1,1.1c0.1,0.3,0.2,0.6,0.4,0.8c0.2,0.2,0.4,0.3,0.6,0.4S93.5-153.6,93.8-153.6z"/>
			<path d="M98.7-151.7v-8.7h2.9l2.8,5.3h0.1l-0.1-2.6v-2.7h2.3v8.7H104l-2.8-5.2h-0.1l0.1,2.3v2.8H98.7z"/>
			<path d="M107-151.7l2.7-8.7h3.5l2.7,8.7h-2.5l-1.6-5.8l-0.3-1.1h-0.1l-0.3,1.1l-1.6,5.8H107z M109.8-153.3l0.5-1.8h2.2l0.5,1.8
				H109.8z"/>
			<path d="M116.1-151.7v-8.7h4.8c0.4,0,0.7,0,1,0.1c0.3,0.1,0.6,0.2,0.8,0.3c0.2,0.1,0.5,0.3,0.6,0.5c0.2,0.2,0.3,0.4,0.4,0.7
				c0.1,0.3,0.1,0.6,0.1,0.9c0,0.5-0.1,1-0.4,1.4s-0.7,0.6-1.2,0.8v0.1c0.3,0.1,0.6,0.2,0.8,0.3s0.4,0.3,0.5,0.6
				c0.1,0.2,0.1,0.5,0.1,0.8v1.4c0,0.2,0,0.3,0,0.5c0,0.2,0.1,0.4,0.1,0.5h-2.4c0-0.1-0.1-0.2-0.1-0.4c0-0.2,0-0.4,0-0.6v-1
				c0-0.2,0-0.4-0.1-0.5c-0.1-0.1-0.2-0.3-0.3-0.3s-0.4-0.1-0.7-0.1h-1.8v-1.9h1.9c0.4,0,0.7-0.1,0.8-0.3c0.2-0.2,0.2-0.4,0.2-0.7
				c0-0.2,0-0.3-0.1-0.4c-0.1-0.1-0.1-0.2-0.2-0.3c-0.1-0.1-0.2-0.1-0.3-0.2s-0.3,0-0.4,0h-1.7v6.8H116.1z"/>
			<path d="M128.5-151.6c-0.7,0-1.3-0.1-1.8-0.3c-0.5-0.2-1-0.5-1.4-0.9c-0.4-0.4-0.7-0.8-0.9-1.4c-0.2-0.6-0.3-1.2-0.3-1.9
				s0.1-1.4,0.3-1.9c0.2-0.6,0.5-1,0.9-1.4c0.4-0.4,0.9-0.7,1.4-0.9c0.5-0.2,1.2-0.3,1.8-0.3c0.8,0,1.5,0.1,2.1,0.4
				c0.6,0.3,1.1,0.6,1.5,1.1c0.4,0.5,0.6,1,0.6,1.7h-2.5c-0.1-0.2-0.2-0.4-0.3-0.6s-0.4-0.3-0.6-0.4c-0.2-0.1-0.5-0.1-0.8-0.1
				c-0.4,0-0.7,0.1-1,0.2s-0.5,0.4-0.7,0.8c-0.2,0.4-0.2,0.8-0.2,1.4c0,0.4,0,0.8,0.1,1.1c0.1,0.3,0.2,0.6,0.4,0.8
				c0.2,0.2,0.4,0.3,0.6,0.4s0.5,0.1,0.8,0.1c0.3,0,0.5,0,0.8-0.1c0.2-0.1,0.4-0.2,0.6-0.4s0.3-0.4,0.3-0.6h2.5
				c-0.1,0.6-0.3,1.2-0.7,1.7c-0.4,0.5-0.9,0.9-1.5,1.1C129.9-151.7,129.3-151.6,128.5-151.6z"/>
			<path d="M133-151.7v-8.7h2.4v8.7H133z M135-155.1v-2.1h4.2v2.1H135z M138.8-151.7v-8.7h2.4v8.7H138.8z"/>
		</g>
	</g>
</g>
<g>
	<g>
		<g>
			<path d="M79.1-131.8v-8.7h3.8l0.7,3.1l0.4,2.2H84l0.4-2.2l0.6-3.1h3.8v8.7h-2.4v-3.7l0.1-2.7h-0.1l-0.6,2.5l-0.9,3.9h-2l-0.9-4
				l-0.5-2.5h-0.1l0.1,2.7v3.7H79.1z"/>
			<path d="M93.8-131.7c-0.7,0-1.3-0.1-1.8-0.3c-0.5-0.2-1-0.5-1.4-0.9c-0.4-0.4-0.7-0.8-0.9-1.4c-0.2-0.6-0.3-1.2-0.3-1.9
				s0.1-1.4,0.3-1.9c0.2-0.6,0.5-1,0.9-1.4c0.4-0.4,0.9-0.7,1.4-0.9c0.5-0.2,1.2-0.3,1.8-0.3s1.3,0.1,1.8,0.3c0.5,0.2,1,0.5,1.4,0.9
				c0.4,0.4,0.7,0.8,0.9,1.4c0.2,0.6,0.3,1.2,0.3,1.9s-0.1,1.4-0.3,1.9c-0.2,0.6-0.5,1-0.9,1.4c-0.4,0.4-0.9,0.7-1.4,0.9
				C95-131.8,94.4-131.7,93.8-131.7z M93.8-133.7c0.4,0,0.7-0.1,1-0.3s0.5-0.4,0.7-0.8c0.2-0.4,0.2-0.8,0.2-1.4c0-0.4,0-0.8-0.1-1.1
				c-0.1-0.3-0.2-0.6-0.4-0.8c-0.2-0.2-0.4-0.3-0.6-0.4c-0.2-0.1-0.5-0.1-0.8-0.1c-0.4,0-0.7,0.1-1,0.2s-0.5,0.4-0.7,0.8
				c-0.2,0.4-0.2,0.8-0.2,1.4c0,0.4,0,0.8,0.1,1.1c0.1,0.3,0.2,0.6,0.4,0.8c0.2,0.2,0.4,0.3,0.6,0.4S93.5-133.7,93.8-133.7z"/>
			<path d="M98.7-131.8v-8.7h2.9l2.8,5.3h0.1l-0.1-2.6v-2.7h2.3v8.7H104l-2.8-5.2h-0.1l0.1,2.3v2.8H98.7z"/>
			<path d="M107-131.8l2.7-8.7h3.5l2.7,8.7h-2.5l-1.6-5.8l-0.3-1.1h-0.1l-0.3,1.1l-1.6,5.8H107z M109.8-133.4l0.5-1.8h2.2l0.5,1.8
				H109.8z"/>
			<path d="M116.1-131.8v-8.7h4.8c0.4,0,0.7,0,1,0.1c0.3,0.1,0.6,0.2,0.8,0.3c0.2,0.1,0.5,0.3,0.6,0.5c0.2,0.2,0.3,0.4,0.4,0.7
				c0.1,0.3,0.1,0.6,0.1,0.9c0,0.5-0.1,1-0.4,1.4s-0.7,0.6-1.2,0.8v0.1c0.3,0.1,0.6,0.2,0.8,0.3s0.4,0.3,0.5,0.6
				c0.1,0.2,0.1,0.5,0.1,0.8v1.4c0,0.2,0,0.3,0,0.5c0,0.2,0.1,0.4,0.1,0.5h-2.4c0-0.1-0.1-0.2-0.1-0.4c0-0.2,0-0.4,0-0.6v-1
				c0-0.2,0-0.4-0.1-0.5c-0.1-0.1-0.2-0.3-0.3-0.3s-0.4-0.1-0.7-0.1h-1.8v-1.9h1.9c0.4,0,0.7-0.1,0.8-0.3c0.2-0.2,0.2-0.4,0.2-0.7
				c0-0.2,0-0.3-0.1-0.4c-0.1-0.1-0.1-0.2-0.2-0.3c-0.1-0.1-0.2-0.1-0.3-0.2s-0.3,0-0.4,0h-1.7v6.8H116.1z"/>
			<path d="M128.5-131.7c-0.7,0-1.3-0.1-1.8-0.3c-0.5-0.2-1-0.5-1.4-0.9c-0.4-0.4-0.7-0.8-0.9-1.4c-0.2-0.6-0.3-1.2-0.3-1.9
				s0.1-1.4,0.3-1.9c0.2-0.6,0.5-1,0.9-1.4c0.4-0.4,0.9-0.7,1.4-0.9c0.5-0.2,1.2-0.3,1.8-0.3c0.8,0,1.5,0.1,2.1,0.4
				c0.6,0.3,1.1,0.6,1.5,1.1c0.4,0.5,0.6,1,0.6,1.7h-2.5c-0.1-0.2-0.2-0.4-0.3-0.6s-0.4-0.3-0.6-0.4c-0.2-0.1-0.5-0.1-0.8-0.1
				c-0.4,0-0.7,0.1-1,0.2s-0.5,0.4-0.7,0.8c-0.2,0.4-0.2,0.8-0.2,1.4c0,0.4,0,0.8,0.1,1.1c0.1,0.3,0.2,0.6,0.4,0.8
				c0.2,0.2,0.4,0.3,0.6,0.4s0.5,0.1,0.8,0.1c0.3,0,0.5,0,0.8-0.1c0.2-0.1,0.4-0.2,0.6-0.4s0.3-0.4,0.3-0.6h2.5
				c-0.1,0.6-0.3,1.2-0.7,1.7c-0.4,0.5-0.9,0.9-1.5,1.1C129.9-131.8,129.3-131.7,128.5-131.7z"/>
			<path d="M133-131.8v-8.7h2.4v8.7H133z M135-135.2v-2.1h4.2v2.1H135z M138.8-131.8v-8.7h2.4v8.7H138.8z"/>
		</g>
	</g>
</g>
<path d="M198.1-110.4c-0.7,0-1.3-0.1-1.8-0.3c-0.5-0.2-1-0.5-1.4-0.9c-0.4-0.4-0.7-0.8-0.9-1.4c-0.2-0.6-0.3-1.2-0.3-1.9
	s0.1-1.4,0.3-1.9c0.2-0.6,0.5-1,0.9-1.4c0.4-0.4,0.9-0.7,1.4-0.9c0.5-0.2,1.2-0.3,1.8-0.3s1.3,0.1,1.8,0.3c0.5,0.2,1,0.5,1.4,0.9
	c0.4,0.4,0.7,0.8,0.9,1.4c0.2,0.6,0.3,1.2,0.3,1.9s-0.1,1.4-0.3,1.9c-0.2,0.6-0.5,1-0.9,1.4c-0.4,0.4-0.9,0.7-1.4,0.9
	C199.4-110.5,198.8-110.4,198.1-110.4z M198.1-112.5c0.4,0,0.7-0.1,1-0.3s0.5-0.4,0.7-0.8c0.2-0.4,0.2-0.8,0.2-1.4
	c0-0.4,0-0.8-0.1-1.1c-0.1-0.3-0.2-0.6-0.4-0.8c-0.2-0.2-0.4-0.3-0.6-0.4c-0.2-0.1-0.5-0.1-0.8-0.1c-0.4,0-0.7,0.1-1,0.2
	s-0.5,0.4-0.7,0.8c-0.2,0.4-0.2,0.8-0.2,1.4c0,0.4,0,0.8,0.1,1.1c0.1,0.3,0.2,0.6,0.4,0.8c0.2,0.2,0.4,0.3,0.6,0.4
	S197.8-112.5,198.1-112.5z"/>
<path d="M203-110.5v-8.7h2.9l2.8,5.3h0.1l-0.1-2.6v-2.7h2.3v8.7h-2.8l-2.8-5.2h-0.1l0.1,2.3v2.8H203z"/>
<path d="M211.3-110.5l2.7-8.7h3.5l2.7,8.7h-2.5l-1.6-5.8l-0.3-1.1h-0.1l-0.3,1.1l-1.6,5.8H211.3z M214.1-112.1l0.5-1.8h2.2l0.5,1.8
	H214.1z"/>
<path d="M220.5-110.5v-8.7h4.8c0.4,0,0.7,0,1,0.1c0.3,0.1,0.6,0.2,0.8,0.3c0.2,0.1,0.5,0.3,0.6,0.5c0.2,0.2,0.3,0.4,0.4,0.7
	c0.1,0.3,0.1,0.6,0.1,0.9c0,0.5-0.1,1-0.4,1.4s-0.7,0.6-1.2,0.8v0.1c0.3,0.1,0.6,0.2,0.8,0.3s0.4,0.3,0.5,0.6
	c0.1,0.2,0.1,0.5,0.1,0.8v1.4c0,0.2,0,0.3,0,0.5c0,0.2,0.1,0.4,0.1,0.5h-2.4c0-0.1-0.1-0.2-0.1-0.4c0-0.2,0-0.4,0-0.6v-1
	c0-0.2,0-0.4-0.1-0.5c-0.1-0.1-0.2-0.3-0.3-0.3s-0.4-0.1-0.7-0.1h-1.8v-1.9h1.9c0.4,0,0.7-0.1,0.8-0.3c0.2-0.2,0.2-0.4,0.2-0.7
	c0-0.2,0-0.3-0.1-0.4c-0.1-0.1-0.1-0.2-0.2-0.3c-0.1-0.1-0.2-0.1-0.3-0.2s-0.3,0-0.4,0h-1.7v6.8H220.5z"/>
<path d="M232.9-110.4c-0.7,0-1.3-0.1-1.8-0.3c-0.5-0.2-1-0.5-1.4-0.9c-0.4-0.4-0.7-0.8-0.9-1.4c-0.2-0.6-0.3-1.2-0.3-1.9
	s0.1-1.4,0.3-1.9c0.2-0.6,0.5-1,0.9-1.4c0.4-0.4,0.9-0.7,1.4-0.9c0.5-0.2,1.2-0.3,1.8-0.3c0.8,0,1.5,0.1,2.1,0.4
	c0.6,0.3,1.1,0.6,1.5,1.1c0.4,0.5,0.6,1,0.6,1.7h-2.5c-0.1-0.2-0.2-0.4-0.3-0.6s-0.4-0.3-0.6-0.4c-0.2-0.1-0.5-0.1-0.8-0.1
	c-0.4,0-0.7,0.1-1,0.2s-0.5,0.4-0.7,0.8c-0.2,0.4-0.2,0.8-0.2,1.4c0,0.4,0,0.8,0.1,1.1c0.1,0.3,0.2,0.6,0.4,0.8
	c0.2,0.2,0.4,0.3,0.6,0.4s0.5,0.1,0.8,0.1c0.3,0,0.5,0,0.8-0.1c0.2-0.1,0.4-0.2,0.6-0.4s0.3-0.4,0.3-0.6h2.5
	c-0.1,0.6-0.3,1.2-0.7,1.7c-0.4,0.5-0.9,0.9-1.5,1.1C234.3-110.5,233.6-110.4,232.9-110.4z"/>
<path d="M237.4-110.5v-8.7h2.4v8.7H237.4z M239.4-113.9v-2.1h4.2v2.1H239.4z M243.2-110.5v-8.7h2.4v8.7H243.2z"/>
<g>
	<polygon class="st0" points="-101.7,-96.2 -103,-88.5 -103.3,-88.5 -104.7,-96.2 -107.1,-107.1 -120.6,-107.1 -120.6,-76 
		-112.1,-76 -112.1,-89.3 -112.3,-99 -111.9,-99 -110,-90.1 -106.7,-76 -99.6,-76 -96.4,-89.9 -94.4,-99 -94.1,-99 -94.3,-89.3 
		-94.3,-76 -85.9,-76 -85.9,-107.1 -99.4,-107.1 	"/>
	<path class="st0" d="M-56.9-103.4c-1.4-1.4-3.1-2.4-5-3.1c-2-0.7-4.1-1-6.5-1s-4.6,0.4-6.5,1c-1.9,0.7-3.6,1.7-5,3.1
		c-1.4,1.4-2.5,3-3.2,5c-0.8,2-1.1,4.3-1.1,6.9c0,2.6,0.4,4.9,1.1,6.9c0.8,2,1.8,3.7,3.2,5c1.4,1.4,3.1,2.4,5,3.1
		c1.9,0.7,4.1,1,6.5,1s4.6-0.4,6.5-1c2-0.7,3.6-1.7,5-3.1c1.4-1.4,2.5-3,3.2-5c0.8-2,1.1-4.3,1.1-6.9c0-2.6-0.4-4.9-1.1-6.9
		C-54.4-100.4-55.5-102.1-56.9-103.4z M-62.3-86.6c-0.6,1.3-1.4,2.2-2.5,2.8c-1.1,0.6-2.3,0.9-3.7,0.9c-1.1,0-2-0.2-2.9-0.5
		c-0.9-0.3-1.6-0.8-2.2-1.5c-0.6-0.7-1.1-1.6-1.4-2.7c-0.3-1.1-0.5-2.4-0.5-4c0-2.1,0.3-3.7,0.9-5c0.6-1.3,1.4-2.2,2.5-2.8
		c1.1-0.6,2.3-0.9,3.7-0.9c1.1,0,2,0.2,2.9,0.5c0.9,0.3,1.6,0.8,2.2,1.5c0.6,0.7,1.1,1.6,1.4,2.7c0.3,1.1,0.5,2.4,0.5,3.9
		C-61.4-89.5-61.7-87.9-62.3-86.6z"/>
	<polygon class="st0" points="-30.5,-97.5 -30.2,-88.3 -30.5,-88.3 -40.5,-107.1 -50.9,-107.1 -50.9,-76 -42.1,-76 -42.1,-86.1 
		-42.4,-94.4 -42.1,-94.4 -32.1,-76 -22.2,-76 -22.2,-107.1 -30.5,-107.1 	"/>
	<path class="st0" d="M-11.7-107.1L-21.4-76h9l1.5-5.6h10.7L1.4-76h9l-9.7-31.1H-11.7z M-9-88.1l2.3-8.5l1.1-4.1h0.3l1.1,4.1
		l2.3,8.5H-9z"/>
	<path class="st0" d="M37.2-93.5c1.1-1.3,1.6-2.9,1.6-4.9c0-1.2-0.2-2.3-0.5-3.2c-0.3-0.9-0.8-1.8-1.4-2.5c-0.6-0.7-1.4-1.3-2.2-1.7
		c-0.9-0.5-1.8-0.8-2.9-1c-1.1-0.2-2.3-0.3-3.5-0.3H11.3V-76h8.7v-10.5h5.6c1.1,0,1.9,0.1,2.4,0.4c0.6,0.3,1,0.7,1.2,1.2
		c0.2,0.5,0.3,1.1,0.3,1.8v3.4c0,0.8,0,1.5,0.1,2.2c0.1,0.7,0.2,1.2,0.4,1.5h8.7c-0.3-0.6-0.4-1.3-0.5-1.9c0-0.6-0.1-1.2-0.1-1.8
		v-4.9c0-1.2-0.2-2.1-0.5-2.9c-0.4-0.8-0.9-1.5-1.7-2c-0.8-0.5-1.7-0.9-2.9-1.1v-0.3C34.8-91.3,36.2-92.2,37.2-93.5z M29-94.3
		c-0.6,0.7-1.6,1-3,1h-6.1v-6.7h6.1c0.6,0,1.1,0.1,1.5,0.2s0.9,0.3,1.2,0.6c0.4,0.3,0.6,0.6,0.8,1c0.2,0.4,0.3,0.9,0.3,1.6
		C29.9-95.8,29.6-95,29-94.3z"/>
	<path class="st0" d="M51.8-99.3c1.1-0.6,2.3-0.9,3.7-0.9c1.1,0,2,0.2,2.8,0.5c0.8,0.3,1.5,0.8,2.1,1.4s1,1.3,1.2,2.1h8.8
		c-0.2-2.3-1-4.3-2.3-6c-1.3-1.7-3-3-5.2-4c-2.2-1-4.6-1.4-7.4-1.4c-2.4,0-4.6,0.4-6.5,1c-1.9,0.7-3.6,1.7-5,3.1
		c-1.4,1.4-2.5,3-3.2,5c-0.8,2-1.1,4.3-1.1,6.9c0,2.6,0.4,4.9,1.1,6.9c0.8,2,1.8,3.7,3.2,5c1.4,1.4,3.1,2.4,5,3.1
		c1.9,0.7,4.1,1,6.5,1c2.7,0,5.1-0.5,7.3-1.4c2.2-1,3.9-2.3,5.2-4c1.3-1.7,2.1-3.7,2.3-6h-8.8c-0.2,0.8-0.6,1.5-1.2,2.2
		s-1.3,1.1-2.2,1.4c-0.8,0.3-1.8,0.5-2.8,0.5c-1.1,0-2-0.2-2.9-0.5c-0.9-0.3-1.6-0.8-2.2-1.5c-0.6-0.7-1.1-1.6-1.4-2.7
		c-0.3-1.1-0.5-2.4-0.5-4c0-2.1,0.3-3.7,0.9-5C49.9-97.8,50.7-98.7,51.8-99.3z"/>
	<polygon class="st0" points="92.2,-107.1 92.2,-95.4 80.3,-95.4 80.3,-107.1 71.6,-107.1 71.6,-76 80.3,-76 80.3,-88.1 92.2,-88.1 
		92.2,-76 100.9,-76 100.9,-107.1 	"/>
</g>
<g>
	<g>
		<path class="st0" d="M7.4,23.7V8.3h6.7l1.2,5.4l0.7,3.8h0.2l0.6-3.8l1.1-5.4h6.7v15.5h-4.2v-6.6l0.1-4.8h-0.2l-1,4.5l-1.6,6.9
			h-3.5l-1.6-7l-1-4.4h-0.2l0.1,4.8v6.6H7.4z"/>
	</g>
	<g>
		<path class="st0" d="M24.1,32H7.9C3.5,32,0,28.5,0,24.1V7.9C0,3.5,3.5,0,7.9,0h16.3C28.5,0,32,3.5,32,7.9v16.3
			C32,28.5,28.5,32,24.1,32z M7.9,2.9c-2.8,0-5,2.2-5,5v16.3c0,2.8,2.2,5,5,5h16.3c2.8,0,5-2.2,5-5V7.9c0-2.8-2.2-5-5-5H7.9z"/>
	</g>
</g>
<g>
	<polygon class="st1" points="-146.7,-53.9 -148,-46.2 -148.3,-46.2 -149.6,-53.9 -152,-64.9 -165.5,-64.9 -165.5,-33.7 
		-157.1,-33.7 -157.1,-47 -157.3,-56.7 -156.9,-56.7 -155,-47.9 -151.7,-33.7 -144.6,-33.7 -141.3,-47.6 -139.4,-56.7 -139,-56.7 
		-139.3,-47 -139.3,-33.7 -130.9,-33.7 -130.9,-64.9 -144.4,-64.9 	"/>
	<path class="st1" d="M-101.9-61.2c-1.4-1.4-3.1-2.4-5-3.1c-2-0.7-4.1-1-6.5-1c-2.4,0-4.6,0.4-6.5,1c-1.9,0.7-3.6,1.7-5,3.1
		c-1.4,1.4-2.5,3-3.2,5c-0.8,2-1.1,4.3-1.1,6.9s0.4,4.9,1.1,6.9c0.8,2,1.8,3.7,3.2,5c1.4,1.4,3.1,2.4,5,3.1c1.9,0.7,4.1,1,6.5,1
		c2.4,0,4.6-0.4,6.5-1c2-0.7,3.6-1.7,5-3.1c1.4-1.4,2.5-3,3.2-5c0.8-2,1.1-4.3,1.1-6.9s-0.4-4.9-1.1-6.9
		C-99.4-58.1-100.4-59.8-101.9-61.2z M-107.2-44.3c-0.6,1.3-1.4,2.2-2.5,2.8c-1.1,0.6-2.3,0.9-3.7,0.9c-1.1,0-2-0.2-2.9-0.5
		c-0.9-0.3-1.6-0.8-2.2-1.5c-0.6-0.7-1.1-1.6-1.4-2.7c-0.3-1.1-0.5-2.4-0.5-4c0-2.1,0.3-3.7,0.9-5c0.6-1.3,1.4-2.2,2.5-2.8
		c1.1-0.6,2.3-0.9,3.7-0.9c1.1,0,2,0.2,2.9,0.5c0.9,0.3,1.6,0.8,2.2,1.5c0.6,0.7,1.1,1.6,1.4,2.7c0.3,1.1,0.5,2.4,0.5,3.9
		C-106.4-47.3-106.6-45.6-107.2-44.3z"/>
	<polygon class="st1" points="-75.5,-55.2 -75.2,-46.1 -75.5,-46.1 -85.4,-64.9 -95.9,-64.9 -95.9,-33.7 -87,-33.7 -87,-43.8 
		-87.3,-52.1 -87.1,-52.1 -77.1,-33.7 -67.2,-33.7 -67.2,-64.9 -75.5,-64.9 	"/>
	<path class="st1" d="M-56.6-64.9l-9.7,31.1h9l1.5-5.6h10.7l1.5,5.6h9l-9.7-31.1H-56.6z M-54-45.8l2.3-8.5l1.1-4.1h0.3l1.1,4.1
		l2.3,8.5H-54z"/>
	<path class="st1" d="M-7.8-51.2c1.1-1.3,1.6-2.9,1.6-4.9c0-1.2-0.2-2.3-0.5-3.2c-0.3-0.9-0.8-1.8-1.4-2.5c-0.6-0.7-1.4-1.3-2.2-1.7
		c-0.9-0.5-1.8-0.8-2.9-1c-1.1-0.2-2.3-0.3-3.5-0.3h-16.9v31.1h8.7v-10.5h5.6c1.1,0,1.9,0.1,2.4,0.4c0.6,0.3,1,0.7,1.2,1.2
		c0.2,0.5,0.3,1.1,0.3,1.8v3.4c0,0.8,0,1.5,0.1,2.2c0.1,0.7,0.2,1.2,0.4,1.5h8.7c-0.3-0.6-0.4-1.3-0.5-1.9c0-0.6-0.1-1.2-0.1-1.8
		v-4.9c0-1.2-0.2-2.1-0.5-2.9c-0.4-0.8-0.9-1.5-1.7-2s-1.7-0.9-2.9-1.1v-0.3C-10.2-49-8.8-49.9-7.8-51.2z M-15.9-52
		c-0.6,0.7-1.6,1-3,1H-25v-6.7h6.1c0.6,0,1.1,0.1,1.5,0.2c0.5,0.1,0.9,0.3,1.2,0.6c0.4,0.3,0.6,0.6,0.8,1c0.2,0.4,0.3,0.9,0.3,1.6
		C-15.1-53.5-15.4-52.7-15.9-52z"/>
	<path class="st1" d="M6.8-57.1c1.1-0.6,2.3-0.9,3.7-0.9c1.1,0,2,0.2,2.8,0.5c0.8,0.3,1.5,0.8,2.1,1.4c0.6,0.6,1,1.3,1.2,2.1h8.8
		c-0.2-2.3-1-4.3-2.3-6c-1.3-1.7-3-3-5.2-4c-2.2-1-4.6-1.4-7.4-1.4c-2.4,0-4.6,0.4-6.5,1c-1.9,0.7-3.6,1.7-5,3.1
		c-1.4,1.4-2.5,3-3.2,5c-0.8,2-1.1,4.3-1.1,6.9s0.4,4.9,1.1,6.9c0.8,2,1.8,3.7,3.2,5c1.4,1.4,3.1,2.4,5,3.1c1.9,0.7,4.1,1,6.5,1
		c2.7,0,5.1-0.5,7.3-1.4c2.2-1,3.9-2.3,5.2-4c1.3-1.7,2.1-3.7,2.3-6h-8.8c-0.2,0.8-0.6,1.5-1.2,2.2c-0.6,0.6-1.3,1.1-2.2,1.4
		c-0.8,0.3-1.8,0.5-2.8,0.5c-1.1,0-2-0.2-2.9-0.5C6.8-41.5,6-42,5.4-42.6c-0.6-0.7-1.1-1.6-1.4-2.7c-0.3-1.1-0.5-2.4-0.5-4
		c0-2.1,0.3-3.7,0.9-5C4.9-55.5,5.8-56.5,6.8-57.1z"/>
	<polygon class="st1" points="47.2,-64.9 47.2,-53.2 35.3,-53.2 35.3,-64.9 26.7,-64.9 26.7,-33.7 35.3,-33.7 35.3,-45.8 
		47.2,-45.8 47.2,-33.7 55.9,-33.7 55.9,-64.9 	"/>
</g>
<g>
	<g>
		<path class="st1" d="M140-12v-15.5h6.7l1.2,5.4l0.7,3.8h0.2l0.6-3.8l1.1-5.4h6.7V-12h-4.2v-6.6l0.1-4.8H153l-1,4.5l-1.6,6.9h-3.5
			l-1.6-7l-1-4.4h-0.2l0.1,4.8v6.6H140z"/>
	</g>
	<g>
		<path class="st1" d="M156.7-3.7h-16.3c-4.3,0-7.9-3.5-7.9-7.9v-16.3c0-4.3,3.5-7.9,7.9-7.9h16.3c4.3,0,7.9,3.5,7.9,7.9v16.3
			C164.6-7.2,161.1-3.7,156.7-3.7z M140.5-32.8c-2.8,0-5,2.2-5,5v16.3c0,2.8,2.2,5,5,5h16.3c2.8,0,5-2.2,5-5v-16.3c0-2.8-2.2-5-5-5
			H140.5z"/>
	</g>
</g>
</svg>
