<?xml version="1.0" encoding="utf-8"?>
<!-- Generator: Adobe Illustrator 24.1.3, SVG Export Plug-In . SVG Version: 6.00 Build 0)  -->
<svg version="1.1" id="Layer_1" xmlns="http://www.w3.org/2000/svg" xmlns:xlink="http://www.w3.org/1999/xlink" x="0px" y="0px"
	 viewBox="0 0 32 32" style="enable-background:new 0 0 32 32;" xml:space="preserve">
<style type="text/css">
	.st0{fill:#212529;}
	.st1{fill:#F8F9FA;}
</style>
<g>
	<g>
		<path d="M-53.9-225.5h10.2c2.3,0,3.5,1.3,3.5,3.6s-1.2,3.6-3.5,3.6h-10.2V-225.5z M-52.5-224.7v5.5h8.6c1.6,0,2.3-1.1,2.3-2.8
			c0-1.6-0.7-2.7-2.3-2.7H-52.5z"/>
		<path d="M-39.1-225.5h2.9c1.4,0,2.5,0.8,2.5,2.2c0,0.9-0.5,1.6-1.2,1.9l1.5,3.1h-1.6l-1.3-2.7c-0.2,0-0.3,0-0.5,0h-1v2.7h-1.4
			V-225.5z M-37.7-224.7v2.9h1.2c0.9,0,1.5-0.5,1.5-1.5c0-0.9-0.6-1.4-1.4-1.4H-37.7z"/>
		<path d="M-32.3-225.5h1.4v7.2h-1.4V-225.5z"/>
		<path d="M-28.9-225.5h2.8c1.6,0,2.6,0.9,2.6,2.3c0,1.5-1,2.4-2.6,2.4h-1.3v2.6h-1.4V-225.5z M-27.5-224.7v3h1.2
			c0.9,0,1.4-0.6,1.4-1.5c0-0.9-0.5-1.5-1.4-1.5H-27.5z"/>
		<path d="M-22.6-218.3c-0.5,0-0.8-0.4-0.8-0.8c0-0.5,0.3-0.8,0.8-0.8c0.4,0,0.8,0.4,0.8,0.8C-21.8-218.7-22.2-218.3-22.6-218.3z"/>
	</g>
</g>
<g>
	<g>
		<path d="M16.8-228h13.5c3,0,4.6,1.8,4.6,4.8c0,3-1.6,4.8-4.6,4.8H16.8V-228z M18.7-226.9v7.3h11.4c2.1,0,3-1.5,3-3.7
			c0-2.2-0.9-3.6-3-3.6H18.7z"/>
		<path d="M36.7-218.5c-0.6,0-1.1-0.5-1.1-1.1c0-0.6,0.5-1.1,1.1-1.1c0.6,0,1.1,0.5,1.1,1.1C37.8-218.9,37.3-218.5,36.7-218.5z"/>
	</g>
</g>
<g>
	<g>
		<path d="M-44.9-187.3v-8.7h2.1v8.7H-44.9z M-39.5-187.3l-2.1-3.6l-1.2,1.4v-2.5l3.3-4.1h2.6l-3.2,3.6l3.2,5.1H-39.5z"/>
		<path d="M-36.1-187.3v-8.7h2.1v8.7H-36.1z"/>
		<path d="M-32.4-187.3v-8.7h3.4l0.9,3.5l0.5,2.2h0.1l0.4-2.2l0.9-3.5h3.4v8.7h-2.1v-3.9l0.1-2.8H-25l-0.7,2.6l-1.1,4.1h-1.8
			l-1.1-4.1l-0.6-2.6h-0.1l0,2.8v3.9H-32.4z"/>
		<path d="M-17.3-187.2c-0.7,0-1.3-0.1-1.8-0.3c-0.5-0.2-1-0.5-1.4-0.9c-0.4-0.4-0.7-0.9-0.9-1.4s-0.3-1.2-0.3-1.9s0.1-1.4,0.3-1.9
			s0.5-1,0.9-1.4c0.4-0.4,0.9-0.7,1.4-0.9c0.5-0.2,1.1-0.3,1.8-0.3c0.7,0,1.3,0.1,1.8,0.3c0.5,0.2,1,0.5,1.4,0.9
			c0.4,0.4,0.7,0.9,0.9,1.4s0.3,1.2,0.3,1.9s-0.1,1.4-0.3,1.9s-0.5,1-0.9,1.4c-0.4,0.4-0.9,0.7-1.4,0.9
			C-16-187.3-16.6-187.2-17.3-187.2z M-17.3-189c0.4,0,0.8-0.1,1.2-0.3c0.3-0.2,0.6-0.5,0.8-0.9c0.2-0.4,0.3-0.9,0.3-1.5
			c0-0.5-0.1-0.8-0.2-1.2c-0.1-0.3-0.3-0.6-0.5-0.8s-0.4-0.4-0.7-0.5c-0.3-0.1-0.6-0.2-0.9-0.2c-0.4,0-0.8,0.1-1.2,0.3
			c-0.3,0.2-0.6,0.5-0.8,0.9c-0.2,0.4-0.3,0.9-0.3,1.5c0,0.5,0.1,0.9,0.2,1.2c0.1,0.3,0.3,0.6,0.5,0.8c0.2,0.2,0.4,0.4,0.7,0.5
			C-17.9-189.1-17.6-189-17.3-189z"/>
	</g>
</g>
<g>
	<g>
		<path d="M-41.5-173.1c-0.9,0-1.6-0.2-2.2-0.5s-1-0.8-1.4-1.4c-0.3-0.6-0.5-1.3-0.5-2.2c0-0.8,0.2-1.6,0.5-2.2
			c0.3-0.6,0.8-1.1,1.4-1.4c0.6-0.3,1.3-0.5,2.2-0.5c0.8,0,1.6,0.1,2.1,0.4c0.6,0.3,1,0.6,1.3,1.1c0.3,0.5,0.4,1,0.4,1.7v0.3h-2.4v0
			c0-0.5-0.1-0.8-0.3-1c-0.2-0.2-0.6-0.3-1.1-0.3c-0.4,0-0.7,0-0.9,0.1c-0.2,0.1-0.4,0.3-0.5,0.6c-0.1,0.3-0.1,0.7-0.1,1.3
			c0,0.6,0,1,0.1,1.2c0.1,0.3,0.3,0.5,0.5,0.6c0.2,0.1,0.5,0.1,0.9,0.1c0.6,0,0.9-0.1,1.1-0.3c0.2-0.2,0.3-0.5,0.3-1v0h2.4v0.3
			c0,0.6-0.1,1.2-0.4,1.7s-0.7,0.9-1.3,1.1C-39.9-173.3-40.6-173.1-41.5-173.1z"/>
		<path d="M-35.2-173.2h-2.3l2.8-8h3.3l2.8,8h-2.5l-1.3-4l-0.6-2.1h-0.2l-0.7,2.1L-35.2-173.2z M-30.3-174.8h-5.6v-2h5.6V-174.8z"/>
		<path d="M-25-173.1c-0.8,0-1.4-0.1-1.9-0.3c-0.5-0.2-0.9-0.5-1.2-1c-0.3-0.4-0.4-0.9-0.4-1.5v-0.2h2.2v0.1c0,0.2,0,0.4,0.1,0.5
			c0.1,0.1,0.2,0.2,0.4,0.2c0.2,0,0.5,0.1,0.8,0.1c0.4,0,0.7,0,0.8-0.1c0.1-0.1,0.2-0.2,0.2-0.4c0-0.1,0-0.2-0.1-0.3
			c0-0.1-0.1-0.1-0.2-0.2s-0.2-0.1-0.4-0.1l-1.8-0.3c-0.5-0.1-1-0.2-1.3-0.5c-0.3-0.2-0.6-0.5-0.7-0.8c-0.2-0.3-0.2-0.7-0.2-1.1
			c0-0.5,0.1-0.9,0.4-1.3c0.2-0.4,0.6-0.7,1.1-0.9c0.5-0.2,1.2-0.3,1.9-0.3c0.8,0,1.4,0.1,1.9,0.3c0.5,0.2,0.9,0.5,1.1,0.9
			c0.2,0.4,0.4,0.8,0.4,1.3v0.2H-24v-0.1c0-0.2,0-0.3-0.1-0.4c-0.1-0.1-0.2-0.2-0.4-0.2c-0.2,0-0.4-0.1-0.8-0.1
			c-0.4,0-0.7,0-0.9,0.1c-0.1,0.1-0.2,0.2-0.2,0.3c0,0.1,0,0.1,0.1,0.2c0,0.1,0.1,0.1,0.2,0.1s0.2,0.1,0.4,0.1l1.8,0.3
			c0.6,0.1,1,0.3,1.4,0.5c0.3,0.2,0.6,0.5,0.8,0.8c0.2,0.3,0.2,0.7,0.2,1.1c0,0.5-0.1,0.9-0.3,1.3c-0.2,0.4-0.6,0.7-1.1,1
			S-24.2-173.1-25-173.1z"/>
		<path d="M-19.1-173.2h-2.3l2.8-8h3.3l2.8,8h-2.5l-1.3-4l-0.6-2.1h-0.2l-0.7,2.1L-19.1-173.2z M-14.2-174.8h-5.6v-2h5.6V-174.8z"/>
	</g>
</g>
<g>
	<g>
		<path d="M-41.5-159.5c-0.9,0-1.6-0.2-2.2-0.5s-1-0.8-1.4-1.4c-0.3-0.6-0.5-1.3-0.5-2.2c0-0.8,0.2-1.6,0.5-2.2
			c0.3-0.6,0.8-1.1,1.4-1.4c0.6-0.3,1.3-0.5,2.2-0.5c0.8,0,1.6,0.1,2.1,0.4c0.6,0.3,1,0.6,1.3,1.1c0.3,0.5,0.4,1,0.4,1.7v0.3h-2.4v0
			c0-0.5-0.1-0.8-0.3-1c-0.2-0.2-0.6-0.3-1.1-0.3c-0.4,0-0.7,0-0.9,0.1c-0.2,0.1-0.4,0.3-0.5,0.6c-0.1,0.3-0.1,0.7-0.1,1.3
			c0,0.6,0,1,0.1,1.2c0.1,0.3,0.3,0.5,0.5,0.6c0.2,0.1,0.5,0.1,0.9,0.1c0.6,0,0.9-0.1,1.1-0.3c0.2-0.2,0.3-0.5,0.3-1v0h2.4v0.3
			c0,0.6-0.1,1.2-0.4,1.7s-0.7,0.9-1.3,1.1C-39.9-159.6-40.6-159.5-41.5-159.5z"/>
		<path d="M-35.2-159.6h-2.3l2.8-8h3.3l2.8,8h-2.5l-1.3-4l-0.6-2.1h-0.2l-0.7,2.1L-35.2-159.6z M-30.3-161.1h-5.6v-2h5.6V-161.1z"/>
		<path d="M-25-159.5c-0.8,0-1.4-0.1-1.9-0.3c-0.5-0.2-0.9-0.5-1.2-1c-0.3-0.4-0.4-0.9-0.4-1.5v-0.2h2.2v0.1c0,0.2,0,0.4,0.1,0.5
			c0.1,0.1,0.2,0.2,0.4,0.2c0.2,0,0.5,0.1,0.8,0.1c0.4,0,0.7,0,0.8-0.1c0.1-0.1,0.2-0.2,0.2-0.4c0-0.1,0-0.2-0.1-0.3
			c0-0.1-0.1-0.1-0.2-0.2s-0.2-0.1-0.4-0.1l-1.8-0.3c-0.5-0.1-1-0.2-1.3-0.5c-0.3-0.2-0.6-0.5-0.7-0.8c-0.2-0.3-0.2-0.7-0.2-1.1
			c0-0.5,0.1-0.9,0.4-1.3c0.2-0.4,0.6-0.7,1.1-0.9c0.5-0.2,1.2-0.3,1.9-0.3c0.8,0,1.4,0.1,1.9,0.3c0.5,0.2,0.9,0.5,1.1,0.9
			c0.2,0.4,0.4,0.8,0.4,1.3v0.2H-24v-0.1c0-0.2,0-0.3-0.1-0.4c-0.1-0.1-0.2-0.2-0.4-0.2c-0.2,0-0.4-0.1-0.8-0.1
			c-0.4,0-0.7,0-0.9,0.1c-0.1,0.1-0.2,0.2-0.2,0.3c0,0.1,0,0.1,0.1,0.2c0,0.1,0.1,0.1,0.2,0.1s0.2,0.1,0.4,0.1l1.8,0.3
			c0.6,0.1,1,0.3,1.4,0.5c0.3,0.2,0.6,0.5,0.8,0.8c0.2,0.3,0.2,0.7,0.2,1.1c0,0.5-0.1,0.9-0.3,1.3c-0.2,0.4-0.6,0.7-1.1,1
			S-24.2-159.5-25-159.5z"/>
		<path d="M-19.1-159.6h-2.3l2.8-8h3.3l2.8,8h-2.5l-1.3-4l-0.6-2.1h-0.2l-0.7,2.1L-19.1-159.6z M-14.2-161.1h-5.6v-2h5.6V-161.1z"/>
	</g>
</g>
<g>
	<g>
		<g>
			<path d="M-53.5-116v-8.7h3.8l0.7,3.1l0.4,2.2h0.1l0.4-2.2l0.6-3.1h3.8v8.7h-2.4v-3.7l0.1-2.7h-0.1l-0.6,2.5l-0.9,3.9h-2l-0.9-4
				l-0.5-2.5h-0.1l0.1,2.7v3.7H-53.5z"/>
			<path d="M-38.8-115.9c-0.7,0-1.3-0.1-1.8-0.3c-0.5-0.2-1-0.5-1.4-0.9c-0.4-0.4-0.7-0.8-0.9-1.4c-0.2-0.6-0.3-1.2-0.3-1.9
				s0.1-1.4,0.3-1.9c0.2-0.6,0.5-1,0.9-1.4c0.4-0.4,0.9-0.7,1.4-0.9c0.5-0.2,1.2-0.3,1.8-0.3s1.3,0.1,1.8,0.3c0.5,0.2,1,0.5,1.4,0.9
				c0.4,0.4,0.7,0.8,0.9,1.4c0.2,0.6,0.3,1.2,0.3,1.9s-0.1,1.4-0.3,1.9c-0.2,0.6-0.5,1-0.9,1.4c-0.4,0.4-0.9,0.7-1.4,0.9
				C-37.6-116-38.2-115.9-38.8-115.9z M-38.8-117.9c0.4,0,0.7-0.1,1-0.3s0.5-0.4,0.7-0.8c0.2-0.4,0.2-0.8,0.2-1.4
				c0-0.4,0-0.8-0.1-1.1c-0.1-0.3-0.2-0.6-0.4-0.8c-0.2-0.2-0.4-0.3-0.6-0.4c-0.2-0.1-0.5-0.1-0.8-0.1c-0.4,0-0.7,0.1-1,0.2
				s-0.5,0.4-0.7,0.8c-0.2,0.4-0.2,0.8-0.2,1.4c0,0.4,0,0.8,0.1,1.1c0.1,0.3,0.2,0.6,0.4,0.8c0.2,0.2,0.4,0.3,0.6,0.4
				S-39.1-117.9-38.8-117.9z"/>
			<path d="M-33.9-116v-8.7h2.9l2.8,5.3h0.1l-0.1-2.6v-2.7h2.3v8.7h-2.8l-2.8-5.2h-0.1l0.1,2.3v2.8H-33.9z"/>
			<path d="M-25.6-116l2.7-8.7h3.5l2.7,8.7h-2.5l-1.6-5.8l-0.3-1.1h-0.1l-0.3,1.1l-1.6,5.8H-25.6z M-22.8-117.5l0.5-1.8h2.2l0.5,1.8
				H-22.8z"/>
			<path d="M-16.5-116v-8.7h4.8c0.4,0,0.7,0,1,0.1c0.3,0.1,0.6,0.2,0.8,0.3c0.2,0.1,0.5,0.3,0.6,0.5c0.2,0.2,0.3,0.4,0.4,0.7
				c0.1,0.3,0.1,0.6,0.1,0.9c0,0.5-0.1,1-0.4,1.4s-0.7,0.6-1.2,0.8v0.1c0.3,0.1,0.6,0.2,0.8,0.3s0.4,0.3,0.5,0.6
				c0.1,0.2,0.1,0.5,0.1,0.8v1.4c0,0.2,0,0.3,0,0.5c0,0.2,0.1,0.4,0.1,0.5h-2.4c0-0.1-0.1-0.2-0.1-0.4c0-0.2,0-0.4,0-0.6v-1
				c0-0.2,0-0.4-0.1-0.5c-0.1-0.1-0.2-0.3-0.3-0.3s-0.4-0.1-0.7-0.1h-1.8v-1.9h1.9c0.4,0,0.7-0.1,0.8-0.3c0.2-0.2,0.2-0.4,0.2-0.7
				c0-0.2,0-0.3-0.1-0.4c-0.1-0.1-0.1-0.2-0.2-0.3c-0.1-0.1-0.2-0.1-0.3-0.2s-0.3,0-0.4,0H-14v6.8H-16.5z"/>
			<path d="M-4.1-115.9c-0.7,0-1.3-0.1-1.8-0.3c-0.5-0.2-1-0.5-1.4-0.9c-0.4-0.4-0.7-0.8-0.9-1.4c-0.2-0.6-0.3-1.2-0.3-1.9
				s0.1-1.4,0.3-1.9c0.2-0.6,0.5-1,0.9-1.4c0.4-0.4,0.9-0.7,1.4-0.9c0.5-0.2,1.2-0.3,1.8-0.3c0.8,0,1.5,0.1,2.1,0.4
				c0.6,0.3,1.1,0.6,1.5,1.1c0.4,0.5,0.6,1,0.6,1.7h-2.5c-0.1-0.2-0.2-0.4-0.3-0.6s-0.4-0.3-0.6-0.4c-0.2-0.1-0.5-0.1-0.8-0.1
				c-0.4,0-0.7,0.1-1,0.2s-0.5,0.4-0.7,0.8c-0.2,0.4-0.2,0.8-0.2,1.4c0,0.4,0,0.8,0.1,1.1c0.1,0.3,0.2,0.6,0.4,0.8
				c0.2,0.2,0.4,0.3,0.6,0.4s0.5,0.1,0.8,0.1c0.3,0,0.5,0,0.8-0.1c0.2-0.1,0.4-0.2,0.6-0.4s0.3-0.4,0.3-0.6h2.5
				c-0.1,0.6-0.3,1.2-0.7,1.7c-0.4,0.5-0.9,0.9-1.5,1.1C-2.7-116-3.3-115.9-4.1-115.9z"/>
			<path d="M0.4-116v-8.7h2.4v8.7H0.4z M2.4-119.4v-2.1h4.2v2.1H2.4z M6.2-116v-8.7h2.4v8.7H6.2z"/>
		</g>
	</g>
</g>
<g>
	<g>
		<g>
			<path d="M-53.5-96.1v-8.7h3.8l0.7,3.1l0.4,2.2h0.1l0.4-2.2l0.6-3.1h3.8v8.7h-2.4v-3.7l0.1-2.7h-0.1l-0.6,2.5l-0.9,3.9h-2l-0.9-4
				l-0.5-2.5h-0.1l0.1,2.7v3.7H-53.5z"/>
			<path d="M-38.8-96c-0.7,0-1.3-0.1-1.8-0.3c-0.5-0.2-1-0.5-1.4-0.9c-0.4-0.4-0.7-0.8-0.9-1.4c-0.2-0.6-0.3-1.2-0.3-1.9
				s0.1-1.4,0.3-1.9c0.2-0.6,0.5-1,0.9-1.4c0.4-0.4,0.9-0.7,1.4-0.9c0.5-0.2,1.2-0.3,1.8-0.3s1.3,0.1,1.8,0.3c0.5,0.2,1,0.5,1.4,0.9
				c0.4,0.4,0.7,0.8,0.9,1.4c0.2,0.6,0.3,1.2,0.3,1.9s-0.1,1.4-0.3,1.9c-0.2,0.6-0.5,1-0.9,1.4c-0.4,0.4-0.9,0.7-1.4,0.9
				C-37.6-96.1-38.2-96-38.8-96z M-38.8-98c0.4,0,0.7-0.1,1-0.3s0.5-0.4,0.7-0.8c0.2-0.4,0.2-0.8,0.2-1.4c0-0.4,0-0.8-0.1-1.1
				c-0.1-0.3-0.2-0.6-0.4-0.8c-0.2-0.2-0.4-0.3-0.6-0.4c-0.2-0.1-0.5-0.1-0.8-0.1c-0.4,0-0.7,0.1-1,0.2s-0.5,0.4-0.7,0.8
				c-0.2,0.4-0.2,0.8-0.2,1.4c0,0.4,0,0.8,0.1,1.1c0.1,0.3,0.2,0.6,0.4,0.8c0.2,0.2,0.4,0.3,0.6,0.4S-39.1-98-38.8-98z"/>
			<path d="M-33.9-96.1v-8.7h2.9l2.8,5.3h0.1l-0.1-2.6v-2.7h2.3v8.7h-2.8l-2.8-5.2h-0.1l0.1,2.3v2.8H-33.9z"/>
			<path d="M-25.6-96.1l2.7-8.7h3.5l2.7,8.7h-2.5l-1.6-5.8l-0.3-1.1h-0.1l-0.3,1.1l-1.6,5.8H-25.6z M-22.8-97.6l0.5-1.8h2.2l0.5,1.8
				H-22.8z"/>
			<path d="M-16.5-96.1v-8.7h4.8c0.4,0,0.7,0,1,0.1c0.3,0.1,0.6,0.2,0.8,0.3c0.2,0.1,0.5,0.3,0.6,0.5c0.2,0.2,0.3,0.4,0.4,0.7
				c0.1,0.3,0.1,0.6,0.1,0.9c0,0.5-0.1,1-0.4,1.4s-0.7,0.6-1.2,0.8v0.1c0.3,0.1,0.6,0.2,0.8,0.3s0.4,0.3,0.5,0.6
				c0.1,0.2,0.1,0.5,0.1,0.8v1.4c0,0.2,0,0.3,0,0.5c0,0.2,0.1,0.4,0.1,0.5h-2.4c0-0.1-0.1-0.2-0.1-0.4c0-0.2,0-0.4,0-0.6v-1
				c0-0.2,0-0.4-0.1-0.5c-0.1-0.1-0.2-0.3-0.3-0.3s-0.4-0.1-0.7-0.1h-1.8v-1.9h1.9c0.4,0,0.7-0.1,0.8-0.3c0.2-0.2,0.2-0.4,0.2-0.7
				c0-0.2,0-0.3-0.1-0.4c-0.1-0.1-0.1-0.2-0.2-0.3c-0.1-0.1-0.2-0.1-0.3-0.2s-0.3,0-0.4,0H-14v6.8H-16.5z"/>
			<path d="M-4.1-96c-0.7,0-1.3-0.1-1.8-0.3c-0.5-0.2-1-0.5-1.4-0.9C-7.7-97.5-8-98-8.3-98.5c-0.2-0.6-0.3-1.2-0.3-1.9
				s0.1-1.4,0.3-1.9c0.2-0.6,0.5-1,0.9-1.4c0.4-0.4,0.9-0.7,1.4-0.9c0.5-0.2,1.2-0.3,1.8-0.3c0.8,0,1.5,0.1,2.1,0.4
				c0.6,0.3,1.1,0.6,1.5,1.1c0.4,0.5,0.6,1,0.6,1.7h-2.5c-0.1-0.2-0.2-0.4-0.3-0.6s-0.4-0.3-0.6-0.4c-0.2-0.1-0.5-0.1-0.8-0.1
				c-0.4,0-0.7,0.1-1,0.2s-0.5,0.4-0.7,0.8c-0.2,0.4-0.2,0.8-0.2,1.4c0,0.4,0,0.8,0.1,1.1c0.1,0.3,0.2,0.6,0.4,0.8
				c0.2,0.2,0.4,0.3,0.6,0.4S-4.4-98-4.1-98c0.3,0,0.5,0,0.8-0.1c0.2-0.1,0.4-0.2,0.6-0.4s0.3-0.4,0.3-0.6h2.5
				C0-98.5-0.2-98-0.6-97.5C-1-97-1.5-96.6-2.1-96.4C-2.7-96.1-3.3-96-4.1-96z"/>
			<path d="M0.4-96.1v-8.7h2.4v8.7H0.4z M2.4-99.5v-2.1h4.2v2.1H2.4z M6.2-96.1v-8.7h2.4v8.7H6.2z"/>
		</g>
	</g>
</g>
<path d="M65.5-74.7c-0.7,0-1.3-0.1-1.8-0.3c-0.5-0.2-1-0.5-1.4-0.9c-0.4-0.4-0.7-0.8-0.9-1.4c-0.2-0.6-0.3-1.2-0.3-1.9
	s0.1-1.4,0.3-1.9c0.2-0.6,0.5-1,0.9-1.4c0.4-0.4,0.9-0.7,1.4-0.9c0.5-0.2,1.2-0.3,1.8-0.3s1.3,0.1,1.8,0.3c0.5,0.2,1,0.5,1.4,0.9
	c0.4,0.4,0.7,0.8,0.9,1.4c0.2,0.6,0.3,1.2,0.3,1.9s-0.1,1.4-0.3,1.9c-0.2,0.6-0.5,1-0.9,1.4c-0.4,0.4-0.9,0.7-1.4,0.9
	C66.8-74.8,66.2-74.7,65.5-74.7z M65.5-76.7c0.4,0,0.7-0.1,1-0.3s0.5-0.4,0.7-0.8c0.2-0.4,0.2-0.8,0.2-1.4c0-0.4,0-0.8-0.1-1.1
	c-0.1-0.3-0.2-0.6-0.4-0.8c-0.2-0.2-0.4-0.3-0.6-0.4c-0.2-0.1-0.5-0.1-0.8-0.1c-0.4,0-0.7,0.1-1,0.2s-0.5,0.4-0.7,0.8
	c-0.2,0.4-0.2,0.8-0.2,1.4c0,0.4,0,0.8,0.1,1.1c0.1,0.3,0.2,0.6,0.4,0.8c0.2,0.2,0.4,0.3,0.6,0.4S65.2-76.7,65.5-76.7z"/>
<path d="M70.4-74.8v-8.7h2.9l2.8,5.3h0.1l-0.1-2.6v-2.7h2.3v8.7h-2.8L72.9-80h-0.1l0.1,2.3v2.8H70.4z"/>
<path d="M78.7-74.8l2.7-8.7h3.5l2.7,8.7h-2.5l-1.6-5.8l-0.3-1.1h-0.1l-0.3,1.1l-1.6,5.8H78.7z M81.5-76.4l0.5-1.8h2.2l0.5,1.8H81.5z
	"/>
<path d="M87.9-74.8v-8.7h4.8c0.4,0,0.7,0,1,0.1c0.3,0.1,0.6,0.2,0.8,0.3c0.2,0.1,0.5,0.3,0.6,0.5c0.2,0.2,0.3,0.4,0.4,0.7
	c0.1,0.3,0.1,0.6,0.1,0.9c0,0.5-0.1,1-0.4,1.4S94.5-79.1,94-79v0.1c0.3,0.1,0.6,0.2,0.8,0.3s0.4,0.3,0.5,0.6
	c0.1,0.2,0.1,0.5,0.1,0.8v1.4c0,0.2,0,0.3,0,0.5c0,0.2,0.1,0.4,0.1,0.5h-2.4c0-0.1-0.1-0.2-0.1-0.4c0-0.2,0-0.4,0-0.6v-1
	c0-0.2,0-0.4-0.1-0.5c-0.1-0.1-0.2-0.3-0.3-0.3s-0.4-0.1-0.7-0.1h-1.8v-1.9H92c0.4,0,0.7-0.1,0.8-0.3c0.2-0.2,0.2-0.4,0.2-0.7
	c0-0.2,0-0.3-0.1-0.4c-0.1-0.1-0.1-0.2-0.2-0.3c-0.1-0.1-0.2-0.1-0.3-0.2s-0.3,0-0.4,0h-1.7v6.8H87.9z"/>
<path d="M100.3-74.7c-0.7,0-1.3-0.1-1.8-0.3c-0.5-0.2-1-0.5-1.4-0.9c-0.4-0.4-0.7-0.8-0.9-1.4c-0.2-0.6-0.3-1.2-0.3-1.9
	s0.1-1.4,0.3-1.9c0.2-0.6,0.5-1,0.9-1.4c0.4-0.4,0.9-0.7,1.4-0.9c0.5-0.2,1.2-0.3,1.8-0.3c0.8,0,1.5,0.1,2.1,0.4
	c0.6,0.3,1.1,0.6,1.5,1.1c0.4,0.5,0.6,1,0.6,1.7H102c-0.1-0.2-0.2-0.4-0.3-0.6s-0.4-0.3-0.6-0.4c-0.2-0.1-0.5-0.1-0.8-0.1
	c-0.4,0-0.7,0.1-1,0.2s-0.5,0.4-0.7,0.8c-0.2,0.4-0.2,0.8-0.2,1.4c0,0.4,0,0.8,0.1,1.1c0.1,0.3,0.2,0.6,0.4,0.8
	c0.2,0.2,0.4,0.3,0.6,0.4s0.5,0.1,0.8,0.1c0.3,0,0.5,0,0.8-0.1c0.2-0.1,0.4-0.2,0.6-0.4s0.3-0.4,0.3-0.6h2.5
	c-0.1,0.6-0.3,1.2-0.7,1.7c-0.4,0.5-0.9,0.9-1.5,1.1C101.7-74.8,101-74.7,100.3-74.7z"/>
<path d="M104.8-74.8v-8.7h2.4v8.7H104.8z M106.8-78.2v-2.1h4.2v2.1H106.8z M110.6-74.8v-8.7h2.4v8.7H110.6z"/>
<g>
	<polygon class="st0" points="-48.2,-36.4 -48.6,-34.3 -48.7,-34.3 -49,-36.4 -49.7,-39.5 -53.5,-39.5 -53.5,-30.8 -51.1,-30.8 
		-51.1,-34.5 -51.2,-37.2 -51.1,-37.2 -50.5,-34.7 -49.6,-30.8 -47.6,-30.8 -46.7,-34.7 -46.1,-37.2 -46,-37.2 -46.1,-34.5 
		-46.1,-30.8 -43.8,-30.8 -43.8,-39.5 -47.5,-39.5 	"/>
	<path class="st0" d="M-35.6-38.5c-0.4-0.4-0.9-0.7-1.4-0.9c-0.5-0.2-1.2-0.3-1.8-0.3s-1.3,0.1-1.8,0.3c-0.5,0.2-1,0.5-1.4,0.9
		c-0.4,0.4-0.7,0.8-0.9,1.4c-0.2,0.6-0.3,1.2-0.3,1.9s0.1,1.4,0.3,1.9c0.2,0.6,0.5,1,0.9,1.4c0.4,0.4,0.9,0.7,1.4,0.9
		c0.5,0.2,1.2,0.3,1.8,0.3s1.3-0.1,1.8-0.3c0.5-0.2,1-0.5,1.4-0.9c0.4-0.4,0.7-0.8,0.9-1.4c0.2-0.6,0.3-1.2,0.3-1.9
		s-0.1-1.4-0.3-1.9C-34.9-37.6-35.2-38.1-35.6-38.5z M-37.1-33.7c-0.2,0.4-0.4,0.6-0.7,0.8s-0.6,0.3-1,0.3c-0.3,0-0.6,0-0.8-0.1
		s-0.4-0.2-0.6-0.4c-0.2-0.2-0.3-0.4-0.4-0.8c-0.1-0.3-0.1-0.7-0.1-1.1c0-0.6,0.1-1,0.2-1.4c0.2-0.4,0.4-0.6,0.7-0.8s0.6-0.2,1-0.2
		c0.3,0,0.6,0,0.8,0.1c0.2,0.1,0.5,0.2,0.6,0.4c0.2,0.2,0.3,0.4,0.4,0.8c0.1,0.3,0.1,0.7,0.1,1.1C-36.9-34.6-37-34.1-37.1-33.7z"/>
	<polygon class="st0" points="-28.2,-36.8 -28.1,-34.2 -28.2,-34.2 -31,-39.5 -33.9,-39.5 -33.9,-30.8 -31.4,-30.8 -31.4,-33.6 
		-31.5,-35.9 -31.5,-35.9 -28.6,-30.8 -25.9,-30.8 -25.9,-39.5 -28.2,-39.5 	"/>
	<path class="st0" d="M-22.9-39.5l-2.7,8.7h2.5l0.4-1.6h3l0.4,1.6h2.5l-2.7-8.7H-22.9z M-22.2-34.2l0.7-2.4l0.3-1.1h0.1l0.3,1.1
		l0.7,2.4H-22.2z"/>
	<path class="st0" d="M-9.2-35.7c0.3-0.4,0.4-0.8,0.4-1.4c0-0.3,0-0.6-0.1-0.9c-0.1-0.3-0.2-0.5-0.4-0.7c-0.2-0.2-0.4-0.4-0.6-0.5
		c-0.2-0.1-0.5-0.2-0.8-0.3c-0.3-0.1-0.6-0.1-1-0.1h-4.8v8.7h2.4v-3h1.6c0.3,0,0.5,0,0.7,0.1s0.3,0.2,0.3,0.3
		c0.1,0.1,0.1,0.3,0.1,0.5v1c0,0.2,0,0.4,0,0.6c0,0.2,0.1,0.3,0.1,0.4h2.4c-0.1-0.2-0.1-0.4-0.1-0.5c0-0.2,0-0.3,0-0.5v-1.4
		c0-0.3,0-0.6-0.1-0.8c-0.1-0.2-0.3-0.4-0.5-0.6s-0.5-0.2-0.8-0.3v-0.1C-9.9-35.1-9.5-35.3-9.2-35.7z M-11.5-35.9
		c-0.2,0.2-0.4,0.3-0.8,0.3H-14v-1.9h1.7c0.2,0,0.3,0,0.4,0s0.2,0.1,0.3,0.2c0.1,0.1,0.2,0.2,0.2,0.3c0.1,0.1,0.1,0.3,0.1,0.4
		C-11.2-36.3-11.3-36.1-11.5-35.9z"/>
	<path class="st0" d="M-5.1-37.3c0.3-0.2,0.6-0.2,1-0.2c0.3,0,0.6,0,0.8,0.1c0.2,0.1,0.4,0.2,0.6,0.4s0.3,0.4,0.3,0.6h2.5
		c-0.1-0.6-0.3-1.2-0.6-1.7C-0.9-38.6-1.4-39-2-39.2c-0.6-0.3-1.3-0.4-2.1-0.4c-0.7,0-1.3,0.1-1.8,0.3c-0.5,0.2-1,0.5-1.4,0.9
		c-0.4,0.4-0.7,0.8-0.9,1.4c-0.2,0.6-0.3,1.2-0.3,1.9s0.1,1.4,0.3,1.9c0.2,0.6,0.5,1,0.9,1.4c0.4,0.4,0.9,0.7,1.4,0.9
		c0.5,0.2,1.2,0.3,1.8,0.3c0.8,0,1.4-0.1,2-0.4c0.6-0.3,1.1-0.6,1.5-1.1c0.4-0.5,0.6-1,0.7-1.7h-2.5c-0.1,0.2-0.2,0.4-0.3,0.6
		s-0.4,0.3-0.6,0.4c-0.2,0.1-0.5,0.1-0.8,0.1c-0.3,0-0.6,0-0.8-0.1s-0.4-0.2-0.6-0.4c-0.2-0.2-0.3-0.4-0.4-0.8
		C-6-34.3-6-34.7-6-35.1c0-0.6,0.1-1,0.2-1.4C-5.6-36.9-5.4-37.2-5.1-37.3z"/>
	<polygon class="st0" points="6.3,-39.5 6.3,-36.2 2.9,-36.2 2.9,-39.5 0.5,-39.5 0.5,-30.8 2.9,-30.8 2.9,-34.2 6.3,-34.2 
		6.3,-30.8 8.7,-30.8 8.7,-39.5 	"/>
</g>
<g>
	<g>
		<path class="st0" d="M25.8-33.6v-4.7h2.1l0.4,1.7l0.2,1.2h0.1l0.2-1.2l0.4-1.7h2.1v4.7h-1.3v-2l0-1.5h-0.1l-0.3,1.4L29-33.6h-1.1
			l-0.5-2.2l-0.3-1.3h-0.1l0,1.5v2H25.8z"/>
	</g>
	<g>
		<path class="st0" d="M30.9-31h-5c-1.3,0-2.4-1.1-2.4-2.4v-5c0-1.3,1.1-2.4,2.4-2.4h5c1.3,0,2.4,1.1,2.4,2.4v5
			C33.4-32.1,32.3-31,30.9-31z M26-40c-0.8,0-1.5,0.7-1.5,1.5v5c0,0.8,0.7,1.5,1.5,1.5h5c0.8,0,1.5-0.7,1.5-1.5v-5
			c0-0.8-0.7-1.5-1.5-1.5H26z"/>
	</g>
</g>
<g>
	<polygon class="st1" points="-48.2,-17.3 -48.6,-15.1 -48.7,-15.1 -49,-17.3 -49.7,-20.4 -53.5,-20.4 -53.5,-11.6 -51.1,-11.6 
		-51.1,-15.4 -51.2,-18.1 -51.1,-18.1 -50.5,-15.6 -49.6,-11.6 -47.6,-11.6 -46.7,-15.5 -46.1,-18.1 -46,-18.1 -46.1,-15.4 
		-46.1,-11.6 -43.8,-11.6 -43.8,-20.4 -47.5,-20.4 	"/>
	<path class="st1" d="M-35.6-19.3c-0.4-0.4-0.9-0.7-1.4-0.9c-0.5-0.2-1.2-0.3-1.8-0.3s-1.3,0.1-1.8,0.3c-0.5,0.2-1,0.5-1.4,0.9
		c-0.4,0.4-0.7,0.8-0.9,1.4c-0.2,0.6-0.3,1.2-0.3,1.9s0.1,1.4,0.3,1.9c0.2,0.6,0.5,1,0.9,1.4c0.4,0.4,0.9,0.7,1.4,0.9
		c0.5,0.2,1.2,0.3,1.8,0.3s1.3-0.1,1.8-0.3c0.5-0.2,1-0.5,1.4-0.9c0.4-0.4,0.7-0.8,0.9-1.4c0.2-0.6,0.3-1.2,0.3-1.9
		s-0.1-1.4-0.3-1.9C-34.9-18.5-35.2-19-35.6-19.3z M-37.1-14.6c-0.2,0.4-0.4,0.6-0.7,0.8s-0.6,0.3-1,0.3c-0.3,0-0.6,0-0.8-0.1
		s-0.4-0.2-0.6-0.4c-0.2-0.2-0.3-0.4-0.4-0.8c-0.1-0.3-0.1-0.7-0.1-1.1c0-0.6,0.1-1,0.2-1.4c0.2-0.4,0.4-0.6,0.7-0.8s0.6-0.2,1-0.2
		c0.3,0,0.6,0,0.8,0.1c0.2,0.1,0.5,0.2,0.6,0.4c0.2,0.2,0.3,0.4,0.4,0.8c0.1,0.3,0.1,0.7,0.1,1.1C-36.9-15.4-37-15-37.1-14.6z"/>
	<polygon class="st1" points="-28.2,-17.7 -28.1,-15.1 -28.2,-15.1 -31,-20.4 -33.9,-20.4 -33.9,-11.6 -31.4,-11.6 -31.4,-14.5 
		-31.5,-16.8 -31.5,-16.8 -28.6,-11.6 -25.9,-11.6 -25.9,-20.4 -28.2,-20.4 	"/>
	<path class="st1" d="M-22.9-20.4l-2.7,8.7h2.5l0.4-1.6h3l0.4,1.6h2.5l-2.7-8.7H-22.9z M-22.2-15l0.7-2.4l0.3-1.1h0.1l0.3,1.1
		l0.7,2.4H-22.2z"/>
	<path class="st1" d="M-9.2-16.6c0.3-0.4,0.4-0.8,0.4-1.4c0-0.3,0-0.6-0.1-0.9c-0.1-0.3-0.2-0.5-0.4-0.7c-0.2-0.2-0.4-0.4-0.6-0.5
		c-0.2-0.1-0.5-0.2-0.8-0.3c-0.3-0.1-0.6-0.1-1-0.1h-4.8v8.7h2.4v-3h1.6c0.3,0,0.5,0,0.7,0.1s0.3,0.2,0.3,0.3
		c0.1,0.1,0.1,0.3,0.1,0.5v1c0,0.2,0,0.4,0,0.6c0,0.2,0.1,0.3,0.1,0.4h2.4c-0.1-0.2-0.1-0.4-0.1-0.5c0-0.2,0-0.3,0-0.5V-14
		c0-0.3,0-0.6-0.1-0.8c-0.1-0.2-0.3-0.4-0.5-0.6s-0.5-0.2-0.8-0.3v-0.1C-9.9-15.9-9.5-16.2-9.2-16.6z M-11.5-16.8
		c-0.2,0.2-0.4,0.3-0.8,0.3H-14v-1.9h1.7c0.2,0,0.3,0,0.4,0s0.2,0.1,0.3,0.2c0.1,0.1,0.2,0.2,0.2,0.3c0.1,0.1,0.1,0.3,0.1,0.4
		C-11.2-17.2-11.3-17-11.5-16.8z"/>
	<path class="st1" d="M-5.1-18.2c0.3-0.2,0.6-0.2,1-0.2c0.3,0,0.6,0,0.8,0.1c0.2,0.1,0.4,0.2,0.6,0.4s0.3,0.4,0.3,0.6h2.5
		c-0.1-0.6-0.3-1.2-0.6-1.7c-0.4-0.5-0.9-0.9-1.5-1.1c-0.6-0.3-1.3-0.4-2.1-0.4c-0.7,0-1.3,0.1-1.8,0.3c-0.5,0.2-1,0.5-1.4,0.9
		C-7.7-19-8-18.5-8.2-17.9c-0.2,0.6-0.3,1.2-0.3,1.9s0.1,1.4,0.3,1.9c0.2,0.6,0.5,1,0.9,1.4c0.4,0.4,0.9,0.7,1.4,0.9
		c0.5,0.2,1.2,0.3,1.8,0.3c0.8,0,1.4-0.1,2-0.4c0.6-0.3,1.1-0.6,1.5-1.1c0.4-0.5,0.6-1,0.7-1.7h-2.5c-0.1,0.2-0.2,0.4-0.3,0.6
		s-0.4,0.3-0.6,0.4c-0.2,0.1-0.5,0.1-0.8,0.1c-0.3,0-0.6,0-0.8-0.1s-0.4-0.2-0.6-0.4c-0.2-0.2-0.3-0.4-0.4-0.8C-6-15.2-6-15.6-6-16
		c0-0.6,0.1-1,0.2-1.4C-5.6-17.8-5.4-18-5.1-18.2z"/>
	<polygon class="st1" points="6.3,-20.4 6.3,-17.1 2.9,-17.1 2.9,-20.4 0.5,-20.4 0.5,-11.6 2.9,-11.6 2.9,-15 6.3,-15 6.3,-11.6 
		8.7,-11.6 8.7,-20.4 	"/>
</g>
<g>
	<g>
		<path class="st1" d="M7.4,23.7V8.3h6.7l1.2,5.4l0.7,3.8h0.2l0.6-3.8l1.1-5.4h6.7v15.5h-4.2v-6.6l0.1-4.8h-0.2l-1,4.5l-1.6,6.9
			h-3.5l-1.6-7l-1-4.4h-0.2l0.1,4.8v6.6H7.4z"/>
	</g>
	<g>
		<path class="st1" d="M24.1,32H7.9C3.5,32,0,28.5,0,24.1V7.9C0,3.5,3.5,0,7.9,0h16.3C28.5,0,32,3.5,32,7.9v16.3
			C32,28.5,28.5,32,24.1,32z M7.9,2.9c-2.8,0-5,2.2-5,5v16.3c0,2.8,2.2,5,5,5h16.3c2.8,0,5-2.2,5-5V7.9c0-2.8-2.2-5-5-5H7.9z"/>
	</g>
</g>
</svg>
