<?xml version="1.0" encoding="utf-8"?>
<!-- Generator: Adobe Illustrator 24.1.3, SVG Export Plug-In . SVG Version: 6.00 Build 0)  -->
<svg version="1.1" id="Layer_1" xmlns="http://www.w3.org/2000/svg" xmlns:xlink="http://www.w3.org/1999/xlink" x="0px" y="0px"
	 viewBox="0 0 221.4 32" style="enable-background:new 0 0 221.4 32;" xml:space="preserve">
<style type="text/css">
	.st0{fill:#212529;}
	.st1{fill:#F8F9FA;}
</style>
<g>
	<g>
		<path d="M199.3-153.7h10.2c2.3,0,3.5,1.3,3.5,3.6s-1.2,3.6-3.5,3.6h-10.2V-153.7z M200.7-152.8v5.5h8.6c1.6,0,2.3-1.1,2.3-2.8
			c0-1.6-0.7-2.7-2.3-2.7H200.7z"/>
		<path d="M214-153.7h2.9c1.4,0,2.5,0.8,2.5,2.2c0,0.9-0.5,1.6-1.2,1.9l1.5,3.1h-1.6l-1.3-2.7c-0.2,0-0.3,0-0.5,0h-1v2.7H214V-153.7
			z M215.4-152.9v2.9h1.2c0.9,0,1.5-0.5,1.5-1.5c0-0.9-0.6-1.4-1.4-1.4H215.4z"/>
		<path d="M220.8-153.7h1.4v7.2h-1.4V-153.7z"/>
		<path d="M224.3-153.7h2.8c1.6,0,2.6,0.9,2.6,2.3c0,1.5-1,2.4-2.6,2.4h-1.3v2.6h-1.4V-153.7z M225.7-152.9v3h1.2
			c0.9,0,1.4-0.6,1.4-1.5c0-0.9-0.5-1.5-1.4-1.5H225.7z"/>
		<path d="M230.5-146.5c-0.5,0-0.8-0.4-0.8-0.8c0-0.5,0.3-0.8,0.8-0.8c0.4,0,0.8,0.4,0.8,0.8C231.3-146.9,231-146.5,230.5-146.5z"/>
	</g>
</g>
<g>
	<g>
		<path d="M270-156.1h13.5c3,0,4.6,1.8,4.6,4.8c0,3-1.6,4.8-4.6,4.8H270V-156.1z M271.9-155v7.3h11.4c2.1,0,3-1.5,3-3.7
			c0-2.2-0.9-3.6-3-3.6H271.9z"/>
		<path d="M289.9-146.6c-0.6,0-1.1-0.5-1.1-1.1c0-0.6,0.5-1.1,1.1-1.1c0.6,0,1.1,0.5,1.1,1.1C291-147.1,290.5-146.6,289.9-146.6z"/>
	</g>
</g>
<g>
	<g>
		<path d="M208.2-115.5v-8.7h2.1v8.7H208.2z M213.6-115.5l-2.1-3.6l-1.2,1.4v-2.5l3.3-4.1h2.6l-3.2,3.6l3.2,5.1H213.6z"/>
		<path d="M217.1-115.5v-8.7h2.1v8.7H217.1z"/>
		<path d="M220.8-115.5v-8.7h3.4l0.9,3.5l0.5,2.2h0.1l0.4-2.2l0.9-3.5h3.4v8.7h-2.1v-3.9l0.1-2.8h-0.1l-0.7,2.6l-1.1,4.1h-1.8
			l-1.1-4.1l-0.6-2.6h-0.1l0,2.8v3.9H220.8z"/>
		<path d="M235.9-115.3c-0.7,0-1.3-0.1-1.8-0.3c-0.5-0.2-1-0.5-1.4-0.9c-0.4-0.4-0.7-0.9-0.9-1.4s-0.3-1.2-0.3-1.9s0.1-1.4,0.3-1.9
			s0.5-1,0.9-1.4c0.4-0.4,0.9-0.7,1.4-0.9c0.5-0.2,1.1-0.3,1.8-0.3c0.7,0,1.3,0.1,1.8,0.3c0.5,0.2,1,0.5,1.4,0.9
			c0.4,0.4,0.7,0.9,0.9,1.4s0.3,1.2,0.3,1.9s-0.1,1.4-0.3,1.9s-0.5,1-0.9,1.4c-0.4,0.4-0.9,0.7-1.4,0.9
			C237.2-115.4,236.6-115.3,235.9-115.3z M235.9-117.2c0.4,0,0.8-0.1,1.2-0.3s0.6-0.5,0.8-0.9c0.2-0.4,0.3-0.9,0.3-1.5
			c0-0.5-0.1-0.8-0.2-1.2c-0.1-0.3-0.3-0.6-0.5-0.8s-0.4-0.4-0.7-0.5c-0.3-0.1-0.6-0.2-0.9-0.2c-0.4,0-0.8,0.1-1.2,0.3
			c-0.3,0.2-0.6,0.5-0.8,0.9c-0.2,0.4-0.3,0.9-0.3,1.5c0,0.5,0.1,0.9,0.2,1.2c0.1,0.3,0.3,0.6,0.5,0.8c0.2,0.2,0.4,0.4,0.7,0.5
			C235.3-117.2,235.6-117.2,235.9-117.2z"/>
	</g>
</g>
<g>
	<g>
		<path d="M211.7-101.3c-0.9,0-1.6-0.2-2.2-0.5s-1-0.8-1.4-1.4c-0.3-0.6-0.5-1.3-0.5-2.2c0-0.8,0.2-1.6,0.5-2.2
			c0.3-0.6,0.8-1.1,1.4-1.4c0.6-0.3,1.3-0.5,2.2-0.5c0.8,0,1.6,0.1,2.1,0.4c0.6,0.3,1,0.6,1.3,1.1c0.3,0.5,0.4,1,0.4,1.7v0.3h-2.4v0
			c0-0.5-0.1-0.8-0.3-1c-0.2-0.2-0.6-0.3-1.1-0.3c-0.4,0-0.7,0-0.9,0.1c-0.2,0.1-0.4,0.3-0.5,0.6c-0.1,0.3-0.1,0.7-0.1,1.3
			c0,0.6,0,1,0.1,1.2c0.1,0.3,0.3,0.5,0.5,0.6c0.2,0.1,0.5,0.1,0.9,0.1c0.6,0,0.9-0.1,1.1-0.3c0.2-0.2,0.3-0.5,0.3-1v0h2.4v0.3
			c0,0.6-0.1,1.2-0.4,1.7s-0.7,0.9-1.3,1.1C213.3-101.4,212.6-101.3,211.7-101.3z"/>
		<path d="M217.9-101.4h-2.3l2.8-8h3.3l2.8,8H222l-1.3-4l-0.6-2.1h-0.2l-0.7,2.1L217.9-101.4z M222.9-103h-5.6v-2h5.6V-103z"/>
		<path d="M228.2-101.3c-0.8,0-1.4-0.1-1.9-0.3c-0.5-0.2-0.9-0.5-1.2-1c-0.3-0.4-0.4-0.9-0.4-1.5v-0.2h2.2v0.1c0,0.2,0,0.4,0.1,0.5
			c0.1,0.1,0.2,0.2,0.4,0.2c0.2,0,0.5,0.1,0.8,0.1c0.4,0,0.7,0,0.8-0.1c0.1-0.1,0.2-0.2,0.2-0.4c0-0.1,0-0.2-0.1-0.3
			c0-0.1-0.1-0.1-0.2-0.2s-0.2-0.1-0.4-0.1l-1.8-0.3c-0.5-0.1-1-0.2-1.3-0.5c-0.3-0.2-0.6-0.5-0.7-0.8c-0.2-0.3-0.2-0.7-0.2-1.1
			c0-0.5,0.1-0.9,0.4-1.3c0.2-0.4,0.6-0.7,1.1-0.9c0.5-0.2,1.2-0.3,1.9-0.3c0.8,0,1.4,0.1,1.9,0.3c0.5,0.2,0.9,0.5,1.1,0.9
			c0.2,0.4,0.4,0.8,0.4,1.3v0.2h-2.2v-0.1c0-0.2,0-0.3-0.1-0.4c-0.1-0.1-0.2-0.2-0.4-0.2c-0.2,0-0.4-0.1-0.8-0.1
			c-0.4,0-0.7,0-0.9,0.1c-0.1,0.1-0.2,0.2-0.2,0.3c0,0.1,0,0.1,0.1,0.2c0,0.1,0.1,0.1,0.2,0.1s0.2,0.1,0.4,0.1l1.8,0.3
			c0.6,0.1,1,0.3,1.4,0.5c0.3,0.2,0.6,0.5,0.8,0.8c0.2,0.3,0.2,0.7,0.2,1.1c0,0.5-0.1,0.9-0.3,1.3c-0.2,0.4-0.6,0.7-1.1,1
			S229-101.3,228.2-101.3z"/>
		<path d="M234-101.4h-2.3l2.8-8h3.3l2.8,8h-2.5l-1.3-4l-0.6-2.1H236l-0.7,2.1L234-101.4z M239-103h-5.6v-2h5.6V-103z"/>
	</g>
</g>
<g>
	<g>
		<path d="M211.7-87.6c-0.9,0-1.6-0.2-2.2-0.5s-1-0.8-1.4-1.4c-0.3-0.6-0.5-1.3-0.5-2.2c0-0.8,0.2-1.6,0.5-2.2
			c0.3-0.6,0.8-1.1,1.4-1.4c0.6-0.3,1.3-0.5,2.2-0.5c0.8,0,1.6,0.1,2.1,0.4c0.6,0.3,1,0.6,1.3,1.1c0.3,0.5,0.4,1,0.4,1.7v0.3h-2.4v0
			c0-0.5-0.1-0.8-0.3-1c-0.2-0.2-0.6-0.3-1.1-0.3c-0.4,0-0.7,0-0.9,0.1c-0.2,0.1-0.4,0.3-0.5,0.6c-0.1,0.3-0.1,0.7-0.1,1.3
			c0,0.6,0,1,0.1,1.2c0.1,0.3,0.3,0.5,0.5,0.6c0.2,0.1,0.5,0.1,0.9,0.1c0.6,0,0.9-0.1,1.1-0.3c0.2-0.2,0.3-0.5,0.3-1v0h2.4v0.3
			c0,0.6-0.1,1.2-0.4,1.7s-0.7,0.9-1.3,1.1C213.3-87.8,212.6-87.6,211.7-87.6z"/>
		<path d="M217.9-87.7h-2.3l2.8-8h3.3l2.8,8H222l-1.3-4l-0.6-2.1h-0.2l-0.7,2.1L217.9-87.7z M222.9-89.3h-5.6v-2h5.6V-89.3z"/>
		<path d="M228.2-87.6c-0.8,0-1.4-0.1-1.9-0.3c-0.5-0.2-0.9-0.5-1.2-1c-0.3-0.4-0.4-0.9-0.4-1.5v-0.2h2.2v0.1c0,0.2,0,0.4,0.1,0.5
			c0.1,0.1,0.2,0.2,0.4,0.2c0.2,0,0.5,0.1,0.8,0.1c0.4,0,0.7,0,0.8-0.1c0.1-0.1,0.2-0.2,0.2-0.4c0-0.1,0-0.2-0.1-0.3
			c0-0.1-0.1-0.1-0.2-0.2s-0.2-0.1-0.4-0.1l-1.8-0.3c-0.5-0.1-1-0.2-1.3-0.5c-0.3-0.2-0.6-0.5-0.7-0.8c-0.2-0.3-0.2-0.7-0.2-1.1
			c0-0.5,0.1-0.9,0.4-1.3c0.2-0.4,0.6-0.7,1.1-0.9c0.5-0.2,1.2-0.3,1.9-0.3c0.8,0,1.4,0.1,1.9,0.3c0.5,0.2,0.9,0.5,1.1,0.9
			c0.2,0.4,0.4,0.8,0.4,1.3v0.2h-2.2v-0.1c0-0.2,0-0.3-0.1-0.4c-0.1-0.1-0.2-0.2-0.4-0.2c-0.2,0-0.4-0.1-0.8-0.1
			c-0.4,0-0.7,0-0.9,0.1c-0.1,0.1-0.2,0.2-0.2,0.3c0,0.1,0,0.1,0.1,0.2c0,0.1,0.1,0.1,0.2,0.1s0.2,0.1,0.4,0.1l1.8,0.3
			c0.6,0.1,1,0.3,1.4,0.5c0.3,0.2,0.6,0.5,0.8,0.8c0.2,0.3,0.2,0.7,0.2,1.1c0,0.5-0.1,0.9-0.3,1.3c-0.2,0.4-0.6,0.7-1.1,1
			S229-87.6,228.2-87.6z"/>
		<path d="M234-87.7h-2.3l2.8-8h3.3l2.8,8h-2.5l-1.3-4l-0.6-2.1H236l-0.7,2.1L234-87.7z M239-89.3h-5.6v-2h5.6V-89.3z"/>
	</g>
</g>
<g>
	<g>
		<g>
			<path d="M199.7-44.1v-8.7h3.8l0.7,3.1l0.4,2.2h0.1l0.4-2.2l0.6-3.1h3.8v8.7h-2.4v-3.7l0.1-2.7H207l-0.6,2.5l-0.9,3.9h-2l-0.9-4
				l-0.5-2.5H202l0.1,2.7v3.7H199.7z"/>
			<path d="M214.3-44c-0.7,0-1.3-0.1-1.8-0.3c-0.5-0.2-1-0.5-1.4-0.9c-0.4-0.4-0.7-0.8-0.9-1.4c-0.2-0.6-0.3-1.2-0.3-1.9
				s0.1-1.4,0.3-1.9c0.2-0.6,0.5-1,0.9-1.4c0.4-0.4,0.9-0.7,1.4-0.9c0.5-0.2,1.2-0.3,1.8-0.3s1.3,0.1,1.8,0.3c0.5,0.2,1,0.5,1.4,0.9
				c0.4,0.4,0.7,0.8,0.9,1.4c0.2,0.6,0.3,1.2,0.3,1.9s-0.1,1.4-0.3,1.9c-0.2,0.6-0.5,1-0.9,1.4c-0.4,0.4-0.9,0.7-1.4,0.9
				C215.6-44.1,215-44,214.3-44z M214.3-46.1c0.4,0,0.7-0.1,1-0.3s0.5-0.4,0.7-0.8c0.2-0.4,0.2-0.8,0.2-1.4c0-0.4,0-0.8-0.1-1.1
				c-0.1-0.3-0.2-0.6-0.4-0.8c-0.2-0.2-0.4-0.3-0.6-0.4c-0.2-0.1-0.5-0.1-0.8-0.1c-0.4,0-0.7,0.1-1,0.2s-0.5,0.4-0.7,0.8
				c-0.2,0.4-0.2,0.8-0.2,1.4c0,0.4,0,0.8,0.1,1.1c0.1,0.3,0.2,0.6,0.4,0.8c0.2,0.2,0.4,0.3,0.6,0.4S214-46.1,214.3-46.1z"/>
			<path d="M219.2-44.1v-8.7h2.9l2.8,5.3h0.1l-0.1-2.6v-2.7h2.3v8.7h-2.8l-2.8-5.2h-0.1l0.1,2.3v2.8H219.2z"/>
			<path d="M227.5-44.1l2.7-8.7h3.5l2.7,8.7h-2.5l-1.6-5.8l-0.3-1.1H232l-0.3,1.1l-1.6,5.8H227.5z M230.3-45.7l0.5-1.8h2.2l0.5,1.8
				H230.3z"/>
			<path d="M236.7-44.1v-8.7h4.8c0.4,0,0.7,0,1,0.1c0.3,0.1,0.6,0.2,0.8,0.3c0.2,0.1,0.5,0.3,0.6,0.5c0.2,0.2,0.3,0.4,0.4,0.7
				c0.1,0.3,0.1,0.6,0.1,0.9c0,0.5-0.1,1-0.4,1.4s-0.7,0.6-1.2,0.8v0.1c0.3,0.1,0.6,0.2,0.8,0.3s0.4,0.3,0.5,0.6
				c0.1,0.2,0.1,0.5,0.1,0.8v1.4c0,0.2,0,0.3,0,0.5c0,0.2,0.1,0.4,0.1,0.5H242c0-0.1-0.1-0.2-0.1-0.4c0-0.2,0-0.4,0-0.6v-1
				c0-0.2,0-0.4-0.1-0.5c-0.1-0.1-0.2-0.3-0.3-0.3s-0.4-0.1-0.7-0.1H239V-49h1.9c0.4,0,0.7-0.1,0.8-0.3c0.2-0.2,0.2-0.4,0.2-0.7
				c0-0.2,0-0.3-0.1-0.4c-0.1-0.1-0.1-0.2-0.2-0.3c-0.1-0.1-0.2-0.1-0.3-0.2s-0.3,0-0.4,0h-1.7v6.8H236.7z"/>
			<path d="M249.1-44c-0.7,0-1.3-0.1-1.8-0.3c-0.5-0.2-1-0.5-1.4-0.9c-0.4-0.4-0.7-0.8-0.9-1.4c-0.2-0.6-0.3-1.2-0.3-1.9
				s0.1-1.4,0.3-1.9c0.2-0.6,0.5-1,0.9-1.4c0.4-0.4,0.9-0.7,1.4-0.9c0.5-0.2,1.2-0.3,1.8-0.3c0.8,0,1.5,0.1,2.1,0.4
				c0.6,0.3,1.1,0.6,1.5,1.1c0.4,0.5,0.6,1,0.6,1.7h-2.5c-0.1-0.2-0.2-0.4-0.3-0.6s-0.4-0.3-0.6-0.4c-0.2-0.1-0.5-0.1-0.8-0.1
				c-0.4,0-0.7,0.1-1,0.2s-0.5,0.4-0.7,0.8c-0.2,0.4-0.2,0.8-0.2,1.4c0,0.4,0,0.8,0.1,1.1c0.1,0.3,0.2,0.6,0.4,0.8
				c0.2,0.2,0.4,0.3,0.6,0.4s0.5,0.1,0.8,0.1c0.3,0,0.5,0,0.8-0.1c0.2-0.1,0.4-0.2,0.6-0.4s0.3-0.4,0.3-0.6h2.5
				c-0.1,0.6-0.3,1.2-0.7,1.7c-0.4,0.5-0.9,0.9-1.5,1.1C250.5-44.2,249.8-44,249.1-44z"/>
			<path d="M253.6-44.1v-8.7h2.4v8.7H253.6z M255.6-47.5v-2.1h4.2v2.1H255.6z M259.4-44.1v-8.7h2.4v8.7H259.4z"/>
		</g>
	</g>
</g>
<g>
	<g>
		<g>
			<path d="M199.7-24.2V-33h3.8l0.7,3.1l0.4,2.2h0.1l0.4-2.2l0.6-3.1h3.8v8.7h-2.4V-28l0.1-2.7H207l-0.6,2.5l-0.9,3.9h-2l-0.9-4
				l-0.5-2.5H202l0.1,2.7v3.7H199.7z"/>
			<path d="M214.3-24.1c-0.7,0-1.3-0.1-1.8-0.3c-0.5-0.2-1-0.5-1.4-0.9c-0.4-0.4-0.7-0.8-0.9-1.4c-0.2-0.6-0.3-1.2-0.3-1.9
				s0.1-1.4,0.3-1.9c0.2-0.6,0.5-1,0.9-1.4c0.4-0.4,0.9-0.7,1.4-0.9c0.5-0.2,1.2-0.3,1.8-0.3s1.3,0.1,1.8,0.3c0.5,0.2,1,0.5,1.4,0.9
				c0.4,0.4,0.7,0.8,0.9,1.4c0.2,0.6,0.3,1.2,0.3,1.9s-0.1,1.4-0.3,1.9c-0.2,0.6-0.5,1-0.9,1.4c-0.4,0.4-0.9,0.7-1.4,0.9
				C215.6-24.2,215-24.1,214.3-24.1z M214.3-26.2c0.4,0,0.7-0.1,1-0.3s0.5-0.4,0.7-0.8c0.2-0.4,0.2-0.8,0.2-1.4c0-0.4,0-0.8-0.1-1.1
				c-0.1-0.3-0.2-0.6-0.4-0.8c-0.2-0.2-0.4-0.3-0.6-0.4c-0.2-0.1-0.5-0.1-0.8-0.1c-0.4,0-0.7,0.1-1,0.2s-0.5,0.4-0.7,0.8
				c-0.2,0.4-0.2,0.8-0.2,1.4c0,0.4,0,0.8,0.1,1.1c0.1,0.3,0.2,0.6,0.4,0.8c0.2,0.2,0.4,0.3,0.6,0.4S214-26.2,214.3-26.2z"/>
			<path d="M219.2-24.2V-33h2.9l2.8,5.3h0.1l-0.1-2.6V-33h2.3v8.7h-2.8l-2.8-5.2h-0.1l0.1,2.3v2.8H219.2z"/>
			<path d="M227.5-24.2l2.7-8.7h3.5l2.7,8.7h-2.5l-1.6-5.8l-0.3-1.1H232l-0.3,1.1l-1.6,5.8H227.5z M230.3-25.8l0.5-1.8h2.2l0.5,1.8
				H230.3z"/>
			<path d="M236.7-24.2V-33h4.8c0.4,0,0.7,0,1,0.1c0.3,0.1,0.6,0.2,0.8,0.3c0.2,0.1,0.5,0.3,0.6,0.5c0.2,0.2,0.3,0.4,0.4,0.7
				c0.1,0.3,0.1,0.6,0.1,0.9c0,0.5-0.1,1-0.4,1.4s-0.7,0.6-1.2,0.8v0.1c0.3,0.1,0.6,0.2,0.8,0.3s0.4,0.3,0.5,0.6
				c0.1,0.2,0.1,0.5,0.1,0.8v1.4c0,0.2,0,0.3,0,0.5c0,0.2,0.1,0.4,0.1,0.5H242c0-0.1-0.1-0.2-0.1-0.4c0-0.2,0-0.4,0-0.6v-1
				c0-0.2,0-0.4-0.1-0.5c-0.1-0.1-0.2-0.3-0.3-0.3s-0.4-0.1-0.7-0.1H239v-1.9h1.9c0.4,0,0.7-0.1,0.8-0.3c0.2-0.2,0.2-0.4,0.2-0.7
				c0-0.2,0-0.3-0.1-0.4c-0.1-0.1-0.1-0.2-0.2-0.3c-0.1-0.1-0.2-0.1-0.3-0.2s-0.3,0-0.4,0h-1.7v6.8H236.7z"/>
			<path d="M249.1-24.1c-0.7,0-1.3-0.1-1.8-0.3c-0.5-0.2-1-0.5-1.4-0.9c-0.4-0.4-0.7-0.8-0.9-1.4c-0.2-0.6-0.3-1.2-0.3-1.9
				s0.1-1.4,0.3-1.9c0.2-0.6,0.5-1,0.9-1.4c0.4-0.4,0.9-0.7,1.4-0.9c0.5-0.2,1.2-0.3,1.8-0.3c0.8,0,1.5,0.1,2.1,0.4
				c0.6,0.3,1.1,0.6,1.5,1.1c0.4,0.5,0.6,1,0.6,1.7h-2.5c-0.1-0.2-0.2-0.4-0.3-0.6s-0.4-0.3-0.6-0.4c-0.2-0.1-0.5-0.1-0.8-0.1
				c-0.4,0-0.7,0.1-1,0.2s-0.5,0.4-0.7,0.8c-0.2,0.4-0.2,0.8-0.2,1.4c0,0.4,0,0.8,0.1,1.1c0.1,0.3,0.2,0.6,0.4,0.8
				c0.2,0.2,0.4,0.3,0.6,0.4s0.5,0.1,0.8,0.1c0.3,0,0.5,0,0.8-0.1c0.2-0.1,0.4-0.2,0.6-0.4s0.3-0.4,0.3-0.6h2.5
				c-0.1,0.6-0.3,1.2-0.7,1.7c-0.4,0.5-0.9,0.9-1.5,1.1C250.5-24.3,249.8-24.1,249.1-24.1z"/>
			<path d="M253.6-24.2V-33h2.4v8.7H253.6z M255.6-27.6v-2.1h4.2v2.1H255.6z M259.4-24.2V-33h2.4v8.7H259.4z"/>
		</g>
	</g>
</g>
<path d="M318.6-2.8c-0.7,0-1.3-0.1-1.8-0.3c-0.5-0.2-1-0.5-1.4-0.9c-0.4-0.4-0.7-0.8-0.9-1.4c-0.2-0.6-0.3-1.2-0.3-1.9
	s0.1-1.4,0.3-1.9c0.2-0.6,0.5-1,0.9-1.4c0.4-0.4,0.9-0.7,1.4-0.9c0.5-0.2,1.2-0.3,1.8-0.3s1.3,0.1,1.8,0.3c0.5,0.2,1,0.5,1.4,0.9
	c0.4,0.4,0.7,0.8,0.9,1.4c0.2,0.6,0.3,1.2,0.3,1.9S323-6,322.8-5.4c-0.2,0.6-0.5,1-0.9,1.4c-0.4,0.4-0.9,0.7-1.4,0.9
	C319.9-2.9,319.3-2.8,318.6-2.8z M318.6-4.9c0.4,0,0.7-0.1,1-0.3s0.5-0.4,0.7-0.8c0.2-0.4,0.2-0.8,0.2-1.4c0-0.4,0-0.8-0.1-1.1
	c-0.1-0.3-0.2-0.6-0.4-0.8c-0.2-0.2-0.4-0.3-0.6-0.4c-0.2-0.1-0.5-0.1-0.8-0.1c-0.4,0-0.7,0.1-1,0.2s-0.5,0.4-0.7,0.8
	c-0.2,0.4-0.2,0.8-0.2,1.4c0,0.4,0,0.8,0.1,1.1c0.1,0.3,0.2,0.6,0.4,0.8c0.2,0.2,0.4,0.3,0.6,0.4S318.4-4.9,318.6-4.9z"/>
<path d="M323.6-3v-8.7h2.9l2.8,5.3h0.1L329.3-9v-2.7h2.3V-3h-2.8L326-8.1H326l0.1,2.3V-3H323.6z"/>
<path d="M331.9-3l2.7-8.7h3.5l2.7,8.7h-2.5l-1.6-5.8l-0.3-1.1h-0.1L336-8.7L334.4-3H331.9z M334.7-4.5l0.5-1.8h2.2l0.5,1.8H334.7z"
	/>
<path d="M341-3v-8.7h4.8c0.4,0,0.7,0,1,0.1c0.3,0.1,0.6,0.2,0.8,0.3c0.2,0.1,0.5,0.3,0.6,0.5c0.2,0.2,0.3,0.4,0.4,0.7
	c0.1,0.3,0.1,0.6,0.1,0.9c0,0.5-0.1,1-0.4,1.4s-0.7,0.6-1.2,0.8V-7c0.3,0.1,0.6,0.2,0.8,0.3s0.4,0.3,0.5,0.6
	c0.1,0.2,0.1,0.5,0.1,0.8V-4c0,0.2,0,0.3,0,0.5c0,0.2,0.1,0.4,0.1,0.5h-2.4c0-0.1-0.1-0.2-0.1-0.4c0-0.2,0-0.4,0-0.6v-1
	c0-0.2,0-0.4-0.1-0.5c-0.1-0.1-0.2-0.3-0.3-0.3s-0.4-0.1-0.7-0.1h-1.8v-1.9h1.9c0.4,0,0.7-0.1,0.8-0.3c0.2-0.2,0.2-0.4,0.2-0.7
	c0-0.2,0-0.3-0.1-0.4c-0.1-0.1-0.1-0.2-0.2-0.3c-0.1-0.1-0.2-0.1-0.3-0.2s-0.3,0-0.4,0h-1.7V-3H341z"/>
<path d="M353.4-2.8c-0.7,0-1.3-0.1-1.8-0.3c-0.5-0.2-1-0.5-1.4-0.9c-0.4-0.4-0.7-0.8-0.9-1.4C349.1-6,349-6.6,349-7.3
	s0.1-1.4,0.3-1.9c0.2-0.6,0.5-1,0.9-1.4c0.4-0.4,0.9-0.7,1.4-0.9c0.5-0.2,1.2-0.3,1.8-0.3c0.8,0,1.5,0.1,2.1,0.4
	c0.6,0.3,1.1,0.6,1.5,1.1c0.4,0.5,0.6,1,0.6,1.7h-2.5c-0.1-0.2-0.2-0.4-0.3-0.6s-0.4-0.3-0.6-0.4c-0.2-0.1-0.5-0.1-0.8-0.1
	c-0.4,0-0.7,0.1-1,0.2s-0.5,0.4-0.7,0.8c-0.2,0.4-0.2,0.8-0.2,1.4c0,0.4,0,0.8,0.1,1.1c0.1,0.3,0.2,0.6,0.4,0.8
	c0.2,0.2,0.4,0.3,0.6,0.4s0.5,0.1,0.8,0.1c0.3,0,0.5,0,0.8-0.1c0.2-0.1,0.4-0.2,0.6-0.4s0.3-0.4,0.3-0.6h2.5
	c-0.1,0.6-0.3,1.2-0.7,1.7c-0.4,0.5-0.9,0.9-1.5,1.1C354.9-3,354.2-2.8,353.4-2.8z"/>
<path d="M358-3v-8.7h2.4V-3H358z M360-6.3v-2.1h4.2v2.1H360z M363.8-3v-8.7h2.4V-3H363.8z"/>
<g>
	<polygon class="st0" points="18.8,11.4 17.6,19.1 17.2,19.1 15.9,11.4 13.5,0.4 0,0.4 0,31.6 8.5,31.6 8.5,18.2 8.2,8.6 8.6,8.6 
		10.6,17.4 13.8,31.6 20.9,31.6 24.2,17.6 26.1,8.6 26.5,8.6 26.3,18.2 26.3,31.6 34.6,31.6 34.6,0.4 21.1,0.4 	"/>
	<path class="st0" d="M63.7,4.1c-1.4-1.4-3.1-2.4-5-3.1c-2-0.7-4.1-1-6.5-1c-2.4,0-4.6,0.4-6.5,1c-1.9,0.7-3.6,1.7-5,3.1
		c-1.4,1.4-2.5,3-3.2,5c-0.8,2-1.1,4.3-1.1,6.9s0.4,4.9,1.1,6.9c0.8,2,1.8,3.7,3.2,5c1.4,1.4,3.1,2.4,5,3.1c1.9,0.7,4.1,1,6.5,1
		c2.4,0,4.6-0.4,6.5-1c2-0.7,3.6-1.7,5-3.1c1.4-1.4,2.5-3,3.2-5c0.8-2,1.1-4.3,1.1-6.9s-0.4-4.9-1.1-6.9C66.2,7.1,65.1,5.5,63.7,4.1
		z M58.3,21c-0.6,1.3-1.4,2.2-2.5,2.8s-2.3,0.9-3.7,0.9c-1.1,0-2-0.2-2.9-0.5s-1.6-0.8-2.2-1.5C46.4,22,46,21.1,45.6,20
		c-0.3-1.1-0.5-2.4-0.5-4c0-2.1,0.3-3.7,0.9-5c0.6-1.3,1.4-2.2,2.5-2.8s2.3-0.9,3.7-0.9c1.1,0,2,0.2,2.9,0.5
		c0.9,0.3,1.6,0.8,2.2,1.5c0.6,0.7,1.1,1.6,1.4,2.7c0.3,1.1,0.5,2.4,0.5,3.9C59.2,18,58.9,19.7,58.3,21z"/>
	<polygon class="st0" points="90,10 90.3,19.2 90.1,19.2 80.1,0.4 69.6,0.4 69.6,31.6 78.5,31.6 78.5,21.5 78.2,13.2 78.4,13.2 
		88.5,31.6 98.3,31.6 98.3,0.4 90,0.4 	"/>
	<path class="st0" d="M108.9,0.4l-9.7,31.1h9l1.5-5.6h10.7l1.5,5.6h9l-9.7-31.1H108.9z M111.5,19.4l2.3-8.5l1.1-4.1h0.3l1.1,4.1
		l2.3,8.5H111.5z"/>
	<path class="st0" d="M157.8,14c1.1-1.3,1.6-2.9,1.6-4.9c0-1.2-0.2-2.3-0.5-3.2c-0.3-0.9-0.8-1.8-1.4-2.5c-0.6-0.7-1.4-1.3-2.2-1.7
		c-0.9-0.5-1.8-0.8-2.9-1c-1.1-0.2-2.3-0.3-3.5-0.3h-16.9v31.1h8.7V21.1h5.6c1.1,0,1.9,0.1,2.4,0.4c0.6,0.3,1,0.7,1.2,1.2
		c0.2,0.5,0.3,1.1,0.3,1.8v3.4c0,0.8,0,1.5,0.1,2.2c0.1,0.7,0.2,1.2,0.4,1.5h8.7c-0.3-0.6-0.4-1.3-0.5-1.9c0-0.6-0.1-1.2-0.1-1.8V23
		c0-1.2-0.2-2.1-0.5-2.9c-0.4-0.8-0.9-1.5-1.7-2c-0.8-0.5-1.7-0.9-2.9-1.1v-0.3C155.3,16.3,156.7,15.4,157.8,14z M149.6,13.3
		c-0.6,0.7-1.6,1-3,1h-6.1V7.5h6.1c0.6,0,1.1,0.1,1.5,0.2c0.5,0.1,0.9,0.3,1.2,0.6c0.4,0.3,0.6,0.6,0.8,1c0.2,0.4,0.3,0.9,0.3,1.6
		C150.5,11.8,150.2,12.6,149.6,13.3z"/>
	<path class="st0" d="M172.3,8.2c1.1-0.6,2.3-0.9,3.7-0.9c1.1,0,2,0.2,2.8,0.5c0.8,0.3,1.5,0.8,2.1,1.4c0.6,0.6,1,1.3,1.2,2.1h8.8
		c-0.2-2.3-1-4.3-2.3-6c-1.3-1.7-3-3-5.2-4c-2.2-1-4.6-1.4-7.4-1.4c-2.4,0-4.6,0.4-6.5,1c-1.9,0.7-3.6,1.7-5,3.1
		c-1.4,1.4-2.5,3-3.2,5c-0.8,2-1.1,4.3-1.1,6.9s0.4,4.9,1.1,6.9c0.8,2,1.8,3.7,3.2,5c1.4,1.4,3.1,2.4,5,3.1c1.9,0.7,4.1,1,6.5,1
		c2.7,0,5.1-0.5,7.3-1.4c2.2-1,3.9-2.3,5.2-4c1.3-1.7,2.1-3.7,2.3-6h-8.8c-0.2,0.8-0.6,1.5-1.2,2.2c-0.6,0.6-1.3,1.1-2.2,1.4
		c-0.8,0.3-1.8,0.5-2.8,0.5c-1.1,0-2-0.2-2.9-0.5s-1.6-0.8-2.2-1.5c-0.6-0.7-1.1-1.6-1.4-2.7c-0.3-1.1-0.5-2.4-0.5-4
		c0-2.1,0.3-3.7,0.9-5C170.5,9.7,171.3,8.8,172.3,8.2z"/>
	<polygon class="st0" points="212.8,0.4 212.8,12.1 200.9,12.1 200.9,0.4 192.2,0.4 192.2,31.6 200.9,31.6 200.9,19.5 212.8,19.5 
		212.8,31.6 221.4,31.6 221.4,0.4 	"/>
</g>
<g>
	<g>
		<path class="st0" d="M279,38.3v-4.7h2.1l0.4,1.7l0.2,1.2h0.1l0.2-1.2l0.4-1.7h2.1v4.7H283v-2l0-1.5H283l-0.3,1.4l-0.5,2.1h-1.1
			l-0.5-2.2l-0.3-1.3h-0.1l0,1.5v2H279z"/>
	</g>
	<g>
		<path class="st0" d="M284.1,40.8h-5c-1.3,0-2.4-1.1-2.4-2.4v-5c0-1.3,1.1-2.4,2.4-2.4h5c1.3,0,2.4,1.1,2.4,2.4v5
			C286.5,39.7,285.4,40.8,284.1,40.8z M279.1,31.9c-0.8,0-1.5,0.7-1.5,1.5v5c0,0.8,0.7,1.5,1.5,1.5h5c0.8,0,1.5-0.7,1.5-1.5v-5
			c0-0.8-0.7-1.5-1.5-1.5H279.1z"/>
	</g>
</g>
<g>
	<polygon class="st1" points="205,54.5 204.6,56.7 204.5,56.7 204.1,54.5 203.5,51.5 199.7,51.5 199.7,60.2 202.1,60.2 202.1,56.5 
		202,53.8 202.1,53.8 202.6,56.2 203.6,60.2 205.6,60.2 206.5,56.3 207,53.8 207.1,53.8 207.1,56.5 207.1,60.2 209.4,60.2 
		209.4,51.5 205.6,51.5 	"/>
	<path class="st1" d="M217.6,52.5c-0.4-0.4-0.9-0.7-1.4-0.9c-0.5-0.2-1.2-0.3-1.8-0.3s-1.3,0.1-1.8,0.3c-0.5,0.2-1,0.5-1.4,0.9
		c-0.4,0.4-0.7,0.8-0.9,1.4c-0.2,0.6-0.3,1.2-0.3,1.9s0.1,1.4,0.3,1.9c0.2,0.6,0.5,1,0.9,1.4c0.4,0.4,0.9,0.7,1.4,0.9
		c0.5,0.2,1.2,0.3,1.8,0.3s1.3-0.1,1.8-0.3c0.5-0.2,1-0.5,1.4-0.9c0.4-0.4,0.7-0.8,0.9-1.4c0.2-0.6,0.3-1.2,0.3-1.9
		s-0.1-1.4-0.3-1.9C218.3,53.4,218,52.9,217.6,52.5z M216.1,57.2c-0.2,0.4-0.4,0.6-0.7,0.8s-0.6,0.3-1,0.3c-0.3,0-0.6,0-0.8-0.1
		s-0.4-0.2-0.6-0.4c-0.2-0.2-0.3-0.4-0.4-0.8c-0.1-0.3-0.1-0.7-0.1-1.1c0-0.6,0.1-1,0.2-1.4c0.2-0.4,0.4-0.6,0.7-0.8s0.6-0.2,1-0.2
		c0.3,0,0.6,0,0.8,0.1c0.2,0.1,0.5,0.2,0.6,0.4c0.2,0.2,0.3,0.4,0.4,0.8c0.1,0.3,0.1,0.7,0.1,1.1C216.3,56.4,216.2,56.9,216.1,57.2z
		"/>
	<polygon class="st1" points="225,54.2 225,56.7 225,56.7 222.2,51.5 219.2,51.5 219.2,60.2 221.7,60.2 221.7,57.4 221.6,55 
		221.7,55 224.5,60.2 227.3,60.2 227.3,51.5 225,51.5 	"/>
	<path class="st1" d="M230.3,51.5l-2.7,8.7h2.5l0.4-1.6h3l0.4,1.6h2.5l-2.7-8.7H230.3z M231,56.8l0.7-2.4l0.3-1.1h0.1l0.3,1.1
		l0.7,2.4H231z"/>
	<path class="st1" d="M244,55.3c0.3-0.4,0.4-0.8,0.4-1.4c0-0.3,0-0.6-0.1-0.9c-0.1-0.3-0.2-0.5-0.4-0.7c-0.2-0.2-0.4-0.4-0.6-0.5
		c-0.2-0.1-0.5-0.2-0.8-0.3c-0.3-0.1-0.6-0.1-1-0.1h-4.8v8.7h2.4v-3h1.6c0.3,0,0.5,0,0.7,0.1s0.3,0.2,0.3,0.3
		c0.1,0.1,0.1,0.3,0.1,0.5v1c0,0.2,0,0.4,0,0.6c0,0.2,0.1,0.3,0.1,0.4h2.4c-0.1-0.2-0.1-0.4-0.1-0.5c0-0.2,0-0.3,0-0.5v-1.4
		c0-0.3,0-0.6-0.1-0.8c-0.1-0.2-0.3-0.4-0.5-0.6s-0.5-0.2-0.8-0.3V56C243.3,55.9,243.7,55.7,244,55.3z M241.7,55.1
		c-0.2,0.2-0.4,0.3-0.8,0.3h-1.7v-1.9h1.7c0.2,0,0.3,0,0.4,0s0.2,0.1,0.3,0.2c0.1,0.1,0.2,0.2,0.2,0.3c0.1,0.1,0.1,0.3,0.1,0.4
		C241.9,54.7,241.9,54.9,241.7,55.1z"/>
	<path class="st1" d="M248.1,53.7c0.3-0.2,0.6-0.2,1-0.2c0.3,0,0.6,0,0.8,0.1c0.2,0.1,0.4,0.2,0.6,0.4s0.3,0.4,0.3,0.6h2.5
		c-0.1-0.6-0.3-1.2-0.6-1.7c-0.4-0.5-0.9-0.9-1.5-1.1c-0.6-0.3-1.3-0.4-2.1-0.4c-0.7,0-1.3,0.1-1.8,0.3c-0.5,0.2-1,0.5-1.4,0.9
		c-0.4,0.4-0.7,0.8-0.9,1.4c-0.2,0.6-0.3,1.2-0.3,1.9s0.1,1.4,0.3,1.9c0.2,0.6,0.5,1,0.9,1.4c0.4,0.4,0.9,0.7,1.4,0.9
		c0.5,0.2,1.2,0.3,1.8,0.3c0.8,0,1.4-0.1,2-0.4c0.6-0.3,1.1-0.6,1.5-1.1c0.4-0.5,0.6-1,0.7-1.7h-2.5c-0.1,0.2-0.2,0.4-0.3,0.6
		s-0.4,0.3-0.6,0.4c-0.2,0.1-0.5,0.1-0.8,0.1c-0.3,0-0.6,0-0.8-0.1s-0.4-0.2-0.6-0.4c-0.2-0.2-0.3-0.4-0.4-0.8
		c-0.1-0.3-0.1-0.7-0.1-1.1c0-0.6,0.1-1,0.2-1.4C247.6,54.1,247.8,53.8,248.1,53.7z"/>
	<polygon class="st1" points="259.4,51.5 259.4,54.8 256.1,54.8 256.1,51.5 253.7,51.5 253.7,60.2 256.1,60.2 256.1,56.8 
		259.4,56.8 259.4,60.2 261.9,60.2 261.9,51.5 	"/>
</g>
<g>
	<g>
		<path class="st1" d="M260.5,95.6V80.1h6.7l1.2,5.4l0.7,3.8h0.2l0.6-3.8l1.1-5.4h6.7v15.5h-4.2V89l0.1-4.8h-0.2l-1,4.5l-1.6,6.9
			h-3.5l-1.6-7l-1-4.4h-0.2l0.1,4.8v6.6H260.5z"/>
	</g>
	<g>
		<path class="st1" d="M277.3,103.8H261c-4.3,0-7.9-3.5-7.9-7.9V79.7c0-4.3,3.5-7.9,7.9-7.9h16.3c4.3,0,7.9,3.5,7.9,7.9V96
			C285.2,100.3,281.6,103.8,277.3,103.8z M261,74.7c-2.8,0-5,2.2-5,5V96c0,2.8,2.2,5,5,5h16.3c2.8,0,5-2.2,5-5V79.7c0-2.8-2.2-5-5-5
			H261z"/>
	</g>
</g>
</svg>
