<?xml version="1.0" encoding="utf-8"?>
<!-- Generator: Adobe Illustrator 24.1.3, SVG Export Plug-In . SVG Version: 6.00 Build 0)  -->
<svg version="1.1" id="Layer_1" xmlns="http://www.w3.org/2000/svg" xmlns:xlink="http://www.w3.org/1999/xlink" x="0px" y="0px"
	 viewBox="0 0 221.4 32" style="enable-background:new 0 0 221.4 32;" xml:space="preserve">
<style type="text/css">
	.st0{fill:#212529;}
	.st1{fill:#F8F9FA;}
</style>
<g>
	<g>
		<path d="M244.3-196h10.2c2.3,0,3.5,1.3,3.5,3.6s-1.2,3.6-3.5,3.6h-10.2V-196z M245.7-195.1v5.5h8.6c1.6,0,2.3-1.1,2.3-2.8
			c0-1.6-0.7-2.7-2.3-2.7H245.7z"/>
		<path d="M259-196h2.9c1.4,0,2.5,0.8,2.5,2.2c0,0.9-0.5,1.6-1.2,1.9l1.5,3.1h-1.6l-1.3-2.7c-0.2,0-0.3,0-0.5,0h-1v2.7H259V-196z
			 M260.4-195.1v2.9h1.2c0.9,0,1.5-0.5,1.5-1.5c0-0.9-0.6-1.4-1.4-1.4H260.4z"/>
		<path d="M265.8-196h1.4v7.2h-1.4V-196z"/>
		<path d="M269.3-196h2.8c1.6,0,2.6,0.9,2.6,2.3c0,1.5-1,2.4-2.6,2.4h-1.3v2.6h-1.4V-196z M270.7-195.1v3h1.2c0.9,0,1.4-0.6,1.4-1.5
			c0-0.9-0.5-1.5-1.4-1.5H270.7z"/>
		<path d="M275.5-188.8c-0.5,0-0.8-0.4-0.8-0.8c0-0.5,0.3-0.8,0.8-0.8c0.4,0,0.8,0.4,0.8,0.8C276.3-189.1,275.9-188.8,275.5-188.8z"
			/>
	</g>
</g>
<g>
	<g>
		<path d="M315-198.4h13.5c3,0,4.6,1.8,4.6,4.8c0,3-1.6,4.8-4.6,4.8H315V-198.4z M316.8-197.3v7.3h11.4c2.1,0,3-1.5,3-3.7
			c0-2.2-0.9-3.6-3-3.6H316.8z"/>
		<path d="M334.9-188.9c-0.6,0-1.1-0.5-1.1-1.1c0-0.6,0.5-1.1,1.1-1.1c0.6,0,1.1,0.5,1.1,1.1C335.9-189.4,335.5-188.9,334.9-188.9z"
			/>
	</g>
</g>
<g>
	<g>
		<path d="M253.2-157.7v-8.7h2.1v8.7H253.2z M258.6-157.7l-2.1-3.6l-1.2,1.4v-2.5l3.3-4.1h2.6l-3.2,3.6l3.2,5.1H258.6z"/>
		<path d="M262.1-157.7v-8.7h2.1v8.7H262.1z"/>
		<path d="M265.7-157.7v-8.7h3.4l0.9,3.5l0.5,2.2h0.1l0.4-2.2l0.9-3.5h3.4v8.7h-2.1v-3.9l0.1-2.8h-0.1l-0.7,2.6l-1.1,4.1h-1.8
			l-1.1-4.1l-0.6-2.6h-0.1l0,2.8v3.9H265.7z"/>
		<path d="M280.9-157.6c-0.7,0-1.3-0.1-1.8-0.3c-0.5-0.2-1-0.5-1.4-0.9c-0.4-0.4-0.7-0.9-0.9-1.4s-0.3-1.2-0.3-1.9s0.1-1.4,0.3-1.9
			s0.5-1,0.9-1.4c0.4-0.4,0.9-0.7,1.4-0.9c0.5-0.2,1.1-0.3,1.8-0.3c0.7,0,1.3,0.1,1.8,0.3c0.5,0.2,1,0.5,1.4,0.9
			c0.4,0.4,0.7,0.9,0.9,1.4s0.3,1.2,0.3,1.9s-0.1,1.4-0.3,1.9s-0.5,1-0.9,1.4c-0.4,0.4-0.9,0.7-1.4,0.9
			C282.1-157.7,281.5-157.6,280.9-157.6z M280.9-159.4c0.4,0,0.8-0.1,1.2-0.3s0.6-0.5,0.8-0.9c0.2-0.4,0.3-0.9,0.3-1.5
			c0-0.5-0.1-0.8-0.2-1.2c-0.1-0.3-0.3-0.6-0.5-0.8s-0.4-0.4-0.7-0.5c-0.3-0.1-0.6-0.2-0.9-0.2c-0.4,0-0.8,0.1-1.2,0.3
			c-0.3,0.2-0.6,0.5-0.8,0.9c-0.2,0.4-0.3,0.9-0.3,1.5c0,0.5,0.1,0.9,0.2,1.2c0.1,0.3,0.3,0.6,0.5,0.8c0.2,0.2,0.4,0.4,0.7,0.5
			C280.2-159.5,280.5-159.4,280.9-159.4z"/>
	</g>
</g>
<g>
	<g>
		<path d="M256.7-143.6c-0.9,0-1.6-0.2-2.2-0.5s-1-0.8-1.4-1.4c-0.3-0.6-0.5-1.3-0.5-2.2c0-0.8,0.2-1.6,0.5-2.2
			c0.3-0.6,0.8-1.1,1.4-1.4c0.6-0.3,1.3-0.5,2.2-0.5c0.8,0,1.6,0.1,2.1,0.4c0.6,0.3,1,0.6,1.3,1.1c0.3,0.5,0.4,1,0.4,1.7v0.3H258v0
			c0-0.5-0.1-0.8-0.3-1c-0.2-0.2-0.6-0.3-1.1-0.3c-0.4,0-0.7,0-0.9,0.1c-0.2,0.1-0.4,0.3-0.5,0.6c-0.1,0.3-0.1,0.7-0.1,1.3
			c0,0.6,0,1,0.1,1.2c0.1,0.3,0.3,0.5,0.5,0.6c0.2,0.1,0.5,0.1,0.9,0.1c0.6,0,0.9-0.1,1.1-0.3c0.2-0.2,0.3-0.5,0.3-1v0h2.4v0.3
			c0,0.6-0.1,1.2-0.4,1.7s-0.7,0.9-1.3,1.1C258.2-143.7,257.5-143.6,256.7-143.6z"/>
		<path d="M262.9-143.7h-2.3l2.8-8h3.3l2.8,8H267l-1.3-4l-0.6-2.1h-0.2l-0.7,2.1L262.9-143.7z M267.8-145.2h-5.6v-2h5.6V-145.2z"/>
		<path d="M273.2-143.6c-0.8,0-1.4-0.1-1.9-0.3c-0.5-0.2-0.9-0.5-1.2-1c-0.3-0.4-0.4-0.9-0.4-1.5v-0.2h2.2v0.1c0,0.2,0,0.4,0.1,0.5
			c0.1,0.1,0.2,0.2,0.4,0.2c0.2,0,0.5,0.1,0.8,0.1c0.4,0,0.7,0,0.8-0.1c0.1-0.1,0.2-0.2,0.2-0.4c0-0.1,0-0.2-0.1-0.3
			c0-0.1-0.1-0.1-0.2-0.2s-0.2-0.1-0.4-0.1l-1.8-0.3c-0.5-0.1-1-0.2-1.3-0.5c-0.3-0.2-0.6-0.5-0.7-0.8c-0.2-0.3-0.2-0.7-0.2-1.1
			c0-0.5,0.1-0.9,0.4-1.3c0.2-0.4,0.6-0.7,1.1-0.9c0.5-0.2,1.2-0.3,1.9-0.3c0.8,0,1.4,0.1,1.9,0.3c0.5,0.2,0.9,0.5,1.1,0.9
			c0.2,0.4,0.4,0.8,0.4,1.3v0.2h-2.2v-0.1c0-0.2,0-0.3-0.1-0.4c-0.1-0.1-0.2-0.2-0.4-0.2c-0.2,0-0.4-0.1-0.8-0.1
			c-0.4,0-0.7,0-0.9,0.1c-0.1,0.1-0.2,0.2-0.2,0.3c0,0.1,0,0.1,0.1,0.2c0,0.1,0.1,0.1,0.2,0.1s0.2,0.1,0.4,0.1l1.8,0.3
			c0.6,0.1,1,0.3,1.4,0.5c0.3,0.2,0.6,0.5,0.8,0.8c0.2,0.3,0.2,0.7,0.2,1.1c0,0.5-0.1,0.9-0.3,1.3c-0.2,0.4-0.6,0.7-1.1,1
			S274-143.6,273.2-143.6z"/>
		<path d="M279-143.7h-2.3l2.8-8h3.3l2.8,8H283l-1.3-4l-0.6-2.1H281l-0.7,2.1L279-143.7z M283.9-145.2h-5.6v-2h5.6V-145.2z"/>
	</g>
</g>
<g>
	<g>
		<path d="M256.7-129.9c-0.9,0-1.6-0.2-2.2-0.5s-1-0.8-1.4-1.4c-0.3-0.6-0.5-1.3-0.5-2.2c0-0.8,0.2-1.6,0.5-2.2
			c0.3-0.6,0.8-1.1,1.4-1.4c0.6-0.3,1.3-0.5,2.2-0.5c0.8,0,1.6,0.1,2.1,0.4c0.6,0.3,1,0.6,1.3,1.1c0.3,0.5,0.4,1,0.4,1.7v0.3H258v0
			c0-0.5-0.1-0.8-0.3-1c-0.2-0.2-0.6-0.3-1.1-0.3c-0.4,0-0.7,0-0.9,0.1c-0.2,0.1-0.4,0.3-0.5,0.6c-0.1,0.3-0.1,0.7-0.1,1.3
			c0,0.6,0,1,0.1,1.2c0.1,0.3,0.3,0.5,0.5,0.6c0.2,0.1,0.5,0.1,0.9,0.1c0.6,0,0.9-0.1,1.1-0.3c0.2-0.2,0.3-0.5,0.3-1v0h2.4v0.3
			c0,0.6-0.1,1.2-0.4,1.7s-0.7,0.9-1.3,1.1C258.2-130,257.5-129.9,256.7-129.9z"/>
		<path d="M262.9-130h-2.3l2.8-8h3.3l2.8,8H267l-1.3-4l-0.6-2.1h-0.2l-0.7,2.1L262.9-130z M267.8-131.6h-5.6v-2h5.6V-131.6z"/>
		<path d="M273.2-129.9c-0.8,0-1.4-0.1-1.9-0.3c-0.5-0.2-0.9-0.5-1.2-1c-0.3-0.4-0.4-0.9-0.4-1.5v-0.2h2.2v0.1c0,0.2,0,0.4,0.1,0.5
			c0.1,0.1,0.2,0.2,0.4,0.2c0.2,0,0.5,0.1,0.8,0.1c0.4,0,0.7,0,0.8-0.1c0.1-0.1,0.2-0.2,0.2-0.4c0-0.1,0-0.2-0.1-0.3
			c0-0.1-0.1-0.1-0.2-0.2s-0.2-0.1-0.4-0.1l-1.8-0.3c-0.5-0.1-1-0.2-1.3-0.5c-0.3-0.2-0.6-0.5-0.7-0.8c-0.2-0.3-0.2-0.7-0.2-1.1
			c0-0.5,0.1-0.9,0.4-1.3c0.2-0.4,0.6-0.7,1.1-0.9c0.5-0.2,1.2-0.3,1.9-0.3c0.8,0,1.4,0.1,1.9,0.3c0.5,0.2,0.9,0.5,1.1,0.9
			c0.2,0.4,0.4,0.8,0.4,1.3v0.2h-2.2v-0.1c0-0.2,0-0.3-0.1-0.4c-0.1-0.1-0.2-0.2-0.4-0.2c-0.2,0-0.4-0.1-0.8-0.1
			c-0.4,0-0.7,0-0.9,0.1c-0.1,0.1-0.2,0.2-0.2,0.3c0,0.1,0,0.1,0.1,0.2c0,0.1,0.1,0.1,0.2,0.1s0.2,0.1,0.4,0.1l1.8,0.3
			c0.6,0.1,1,0.3,1.4,0.5c0.3,0.2,0.6,0.5,0.8,0.8c0.2,0.3,0.2,0.7,0.2,1.1c0,0.5-0.1,0.9-0.3,1.3c-0.2,0.4-0.6,0.7-1.1,1
			S274-129.9,273.2-129.9z"/>
		<path d="M279-130h-2.3l2.8-8h3.3l2.8,8H283l-1.3-4l-0.6-2.1H281l-0.7,2.1L279-130z M283.9-131.6h-5.6v-2h5.6V-131.6z"/>
	</g>
</g>
<g>
	<g>
		<g>
			<path d="M244.6-86.4v-8.7h3.8l0.7,3.1l0.4,2.2h0.1l0.4-2.2l0.6-3.1h3.8v8.7H252v-3.7l0.1-2.7H252l-0.6,2.5l-0.9,3.9h-2l-0.9-4
				l-0.5-2.5H247l0.1,2.7v3.7H244.6z"/>
			<path d="M259.3-86.3c-0.7,0-1.3-0.1-1.8-0.3c-0.5-0.2-1-0.5-1.4-0.9c-0.4-0.4-0.7-0.8-0.9-1.4c-0.2-0.6-0.3-1.2-0.3-1.9
				s0.1-1.4,0.3-1.9c0.2-0.6,0.5-1,0.9-1.4c0.4-0.4,0.9-0.7,1.4-0.9c0.5-0.2,1.2-0.3,1.8-0.3s1.3,0.1,1.8,0.3c0.5,0.2,1,0.5,1.4,0.9
				c0.4,0.4,0.7,0.8,0.9,1.4c0.2,0.6,0.3,1.2,0.3,1.9s-0.1,1.4-0.3,1.9c-0.2,0.6-0.5,1-0.9,1.4c-0.4,0.4-0.9,0.7-1.4,0.9
				C260.6-86.4,260-86.3,259.3-86.3z M259.3-88.4c0.4,0,0.7-0.1,1-0.3s0.5-0.4,0.7-0.8c0.2-0.4,0.2-0.8,0.2-1.4c0-0.4,0-0.8-0.1-1.1
				c-0.1-0.3-0.2-0.6-0.4-0.8c-0.2-0.2-0.4-0.3-0.6-0.4c-0.2-0.1-0.5-0.1-0.8-0.1c-0.4,0-0.7,0.1-1,0.2s-0.5,0.4-0.7,0.8
				c-0.2,0.4-0.2,0.8-0.2,1.4c0,0.4,0,0.8,0.1,1.1c0.1,0.3,0.2,0.6,0.4,0.8c0.2,0.2,0.4,0.3,0.6,0.4S259-88.4,259.3-88.4z"/>
			<path d="M264.2-86.4v-8.7h2.9l2.8,5.3h0.1l-0.1-2.6v-2.7h2.3v8.7h-2.8l-2.8-5.2h-0.1l0.1,2.3v2.8H264.2z"/>
			<path d="M272.5-86.4l2.7-8.7h3.5l2.7,8.7h-2.5l-1.6-5.8l-0.3-1.1h-0.1l-0.3,1.1l-1.6,5.8H272.5z M275.3-88l0.5-1.8h2.2l0.5,1.8
				H275.3z"/>
			<path d="M281.7-86.4v-8.7h4.8c0.4,0,0.7,0,1,0.1c0.3,0.1,0.6,0.2,0.8,0.3c0.2,0.1,0.5,0.3,0.6,0.5c0.2,0.2,0.3,0.4,0.4,0.7
				c0.1,0.3,0.1,0.6,0.1,0.9c0,0.5-0.1,1-0.4,1.4s-0.7,0.6-1.2,0.8v0.1c0.3,0.1,0.6,0.2,0.8,0.3s0.4,0.3,0.5,0.6
				c0.1,0.2,0.1,0.5,0.1,0.8v1.4c0,0.2,0,0.3,0,0.5c0,0.2,0.1,0.4,0.1,0.5h-2.4c0-0.1-0.1-0.2-0.1-0.4c0-0.2,0-0.4,0-0.6v-1
				c0-0.2,0-0.4-0.1-0.5c-0.1-0.1-0.2-0.3-0.3-0.3s-0.4-0.1-0.7-0.1h-1.8v-1.9h1.9c0.4,0,0.7-0.1,0.8-0.3c0.2-0.2,0.2-0.4,0.2-0.7
				c0-0.2,0-0.3-0.1-0.4c-0.1-0.1-0.1-0.2-0.2-0.3c-0.1-0.1-0.2-0.1-0.3-0.2s-0.3,0-0.4,0h-1.7v6.8H281.7z"/>
			<path d="M294-86.3c-0.7,0-1.3-0.1-1.8-0.3c-0.5-0.2-1-0.5-1.4-0.9c-0.4-0.4-0.7-0.8-0.9-1.4c-0.2-0.6-0.3-1.2-0.3-1.9
				s0.1-1.4,0.3-1.9c0.2-0.6,0.5-1,0.9-1.4c0.4-0.4,0.9-0.7,1.4-0.9c0.5-0.2,1.2-0.3,1.8-0.3c0.8,0,1.5,0.1,2.1,0.4
				c0.6,0.3,1.1,0.6,1.5,1.1c0.4,0.5,0.6,1,0.6,1.7h-2.5c-0.1-0.2-0.2-0.4-0.3-0.6s-0.4-0.3-0.6-0.4c-0.2-0.1-0.5-0.1-0.8-0.1
				c-0.4,0-0.7,0.1-1,0.2s-0.5,0.4-0.7,0.8c-0.2,0.4-0.2,0.8-0.2,1.4c0,0.4,0,0.8,0.1,1.1c0.1,0.3,0.2,0.6,0.4,0.8
				c0.2,0.2,0.4,0.3,0.6,0.4s0.5,0.1,0.8,0.1c0.3,0,0.5,0,0.8-0.1c0.2-0.1,0.4-0.2,0.6-0.4s0.3-0.4,0.3-0.6h2.5
				c-0.1,0.6-0.3,1.2-0.7,1.7c-0.4,0.5-0.9,0.9-1.5,1.1C295.5-86.4,294.8-86.3,294-86.3z"/>
			<path d="M298.6-86.4v-8.7h2.4v8.7H298.6z M300.6-89.8v-2.1h4.2v2.1H300.6z M304.3-86.4v-8.7h2.4v8.7H304.3z"/>
		</g>
	</g>
</g>
<g>
	<g>
		<g>
			<path d="M244.6-66.5v-8.7h3.8l0.7,3.1l0.4,2.2h0.1l0.4-2.2l0.6-3.1h3.8v8.7H252v-3.7l0.1-2.7H252l-0.6,2.5l-0.9,3.9h-2l-0.9-4
				l-0.5-2.5H247l0.1,2.7v3.7H244.6z"/>
			<path d="M259.3-66.4c-0.7,0-1.3-0.1-1.8-0.3c-0.5-0.2-1-0.5-1.4-0.9c-0.4-0.4-0.7-0.8-0.9-1.4c-0.2-0.6-0.3-1.2-0.3-1.9
				s0.1-1.4,0.3-1.9c0.2-0.6,0.5-1,0.9-1.4c0.4-0.4,0.9-0.7,1.4-0.9c0.5-0.2,1.2-0.3,1.8-0.3s1.3,0.1,1.8,0.3c0.5,0.2,1,0.5,1.4,0.9
				c0.4,0.4,0.7,0.8,0.9,1.4c0.2,0.6,0.3,1.2,0.3,1.9s-0.1,1.4-0.3,1.9c-0.2,0.6-0.5,1-0.9,1.4c-0.4,0.4-0.9,0.7-1.4,0.9
				C260.6-66.5,260-66.4,259.3-66.4z M259.3-68.5c0.4,0,0.7-0.1,1-0.3s0.5-0.4,0.7-0.8c0.2-0.4,0.2-0.8,0.2-1.4c0-0.4,0-0.8-0.1-1.1
				c-0.1-0.3-0.2-0.6-0.4-0.8c-0.2-0.2-0.4-0.3-0.6-0.4c-0.2-0.1-0.5-0.1-0.8-0.1c-0.4,0-0.7,0.1-1,0.2s-0.5,0.4-0.7,0.8
				c-0.2,0.4-0.2,0.8-0.2,1.4c0,0.4,0,0.8,0.1,1.1c0.1,0.3,0.2,0.6,0.4,0.8c0.2,0.2,0.4,0.3,0.6,0.4S259-68.5,259.3-68.5z"/>
			<path d="M264.2-66.5v-8.7h2.9l2.8,5.3h0.1l-0.1-2.6v-2.7h2.3v8.7h-2.8l-2.8-5.2h-0.1l0.1,2.3v2.8H264.2z"/>
			<path d="M272.5-66.5l2.7-8.7h3.5l2.7,8.7h-2.5l-1.6-5.8l-0.3-1.1h-0.1l-0.3,1.1l-1.6,5.8H272.5z M275.3-68.1l0.5-1.8h2.2l0.5,1.8
				H275.3z"/>
			<path d="M281.7-66.5v-8.7h4.8c0.4,0,0.7,0,1,0.1c0.3,0.1,0.6,0.2,0.8,0.3c0.2,0.1,0.5,0.3,0.6,0.5c0.2,0.2,0.3,0.4,0.4,0.7
				c0.1,0.3,0.1,0.6,0.1,0.9c0,0.5-0.1,1-0.4,1.4s-0.7,0.6-1.2,0.8v0.1c0.3,0.1,0.6,0.2,0.8,0.3s0.4,0.3,0.5,0.6
				c0.1,0.2,0.1,0.5,0.1,0.8v1.4c0,0.2,0,0.3,0,0.5c0,0.2,0.1,0.4,0.1,0.5h-2.4c0-0.1-0.1-0.2-0.1-0.4c0-0.2,0-0.4,0-0.6v-1
				c0-0.2,0-0.4-0.1-0.5c-0.1-0.1-0.2-0.3-0.3-0.3s-0.4-0.1-0.7-0.1h-1.8v-1.9h1.9c0.4,0,0.7-0.1,0.8-0.3c0.2-0.2,0.2-0.4,0.2-0.7
				c0-0.2,0-0.3-0.1-0.4c-0.1-0.1-0.1-0.2-0.2-0.3c-0.1-0.1-0.2-0.1-0.3-0.2s-0.3,0-0.4,0h-1.7v6.8H281.7z"/>
			<path d="M294-66.4c-0.7,0-1.3-0.1-1.8-0.3c-0.5-0.2-1-0.5-1.4-0.9c-0.4-0.4-0.7-0.8-0.9-1.4c-0.2-0.6-0.3-1.2-0.3-1.9
				s0.1-1.4,0.3-1.9c0.2-0.6,0.5-1,0.9-1.4c0.4-0.4,0.9-0.7,1.4-0.9c0.5-0.2,1.2-0.3,1.8-0.3c0.8,0,1.5,0.1,2.1,0.4
				c0.6,0.3,1.1,0.6,1.5,1.1c0.4,0.5,0.6,1,0.6,1.7h-2.5c-0.1-0.2-0.2-0.4-0.3-0.6s-0.4-0.3-0.6-0.4c-0.2-0.1-0.5-0.1-0.8-0.1
				c-0.4,0-0.7,0.1-1,0.2s-0.5,0.4-0.7,0.8c-0.2,0.4-0.2,0.8-0.2,1.4c0,0.4,0,0.8,0.1,1.1c0.1,0.3,0.2,0.6,0.4,0.8
				c0.2,0.2,0.4,0.3,0.6,0.4s0.5,0.1,0.8,0.1c0.3,0,0.5,0,0.8-0.1c0.2-0.1,0.4-0.2,0.6-0.4s0.3-0.4,0.3-0.6h2.5
				c-0.1,0.6-0.3,1.2-0.7,1.7c-0.4,0.5-0.9,0.9-1.5,1.1C295.5-66.5,294.8-66.4,294-66.4z"/>
			<path d="M298.6-66.5v-8.7h2.4v8.7H298.6z M300.6-69.9V-72h4.2v2.1H300.6z M304.3-66.5v-8.7h2.4v8.7H304.3z"/>
		</g>
	</g>
</g>
<path d="M363.6-45.1c-0.7,0-1.3-0.1-1.8-0.3c-0.5-0.2-1-0.5-1.4-0.9c-0.4-0.4-0.7-0.8-0.9-1.4c-0.2-0.6-0.3-1.2-0.3-1.9
	s0.1-1.4,0.3-1.9c0.2-0.6,0.5-1,0.9-1.4c0.4-0.4,0.9-0.7,1.4-0.9c0.5-0.2,1.2-0.3,1.8-0.3s1.3,0.1,1.8,0.3c0.5,0.2,1,0.5,1.4,0.9
	c0.4,0.4,0.7,0.8,0.9,1.4c0.2,0.6,0.3,1.2,0.3,1.9s-0.1,1.4-0.3,1.9c-0.2,0.6-0.5,1-0.9,1.4c-0.4,0.4-0.9,0.7-1.4,0.9
	C364.9-45.2,364.3-45.1,363.6-45.1z M363.6-47.2c0.4,0,0.7-0.1,1-0.3s0.5-0.4,0.7-0.8c0.2-0.4,0.2-0.8,0.2-1.4c0-0.4,0-0.8-0.1-1.1
	c-0.1-0.3-0.2-0.6-0.4-0.8c-0.2-0.2-0.4-0.3-0.6-0.4c-0.2-0.1-0.5-0.1-0.8-0.1c-0.4,0-0.7,0.1-1,0.2s-0.5,0.4-0.7,0.8
	c-0.2,0.4-0.2,0.8-0.2,1.4c0,0.4,0,0.8,0.1,1.1c0.1,0.3,0.2,0.6,0.4,0.8c0.2,0.2,0.4,0.3,0.6,0.4S363.3-47.2,363.6-47.2z"/>
<path d="M368.5-45.2V-54h2.9l2.8,5.3h0.1l-0.1-2.6V-54h2.3v8.7h-2.8l-2.8-5.2h-0.1l0.1,2.3v2.8H368.5z"/>
<path d="M376.8-45.2l2.7-8.7h3.5l2.7,8.7h-2.5l-1.6-5.8l-0.3-1.1h-0.1L381-51l-1.6,5.8H376.8z M379.6-46.8l0.5-1.8h2.2l0.5,1.8
	H379.6z"/>
<path d="M386-45.2V-54h4.8c0.4,0,0.7,0,1,0.1c0.3,0.1,0.6,0.2,0.8,0.3c0.2,0.1,0.5,0.3,0.6,0.5c0.2,0.2,0.3,0.4,0.4,0.7
	c0.1,0.3,0.1,0.6,0.1,0.9c0,0.5-0.1,1-0.4,1.4s-0.7,0.6-1.2,0.8v0.1c0.3,0.1,0.6,0.2,0.8,0.3s0.4,0.3,0.5,0.6
	c0.1,0.2,0.1,0.5,0.1,0.8v1.4c0,0.2,0,0.3,0,0.5c0,0.2,0.1,0.4,0.1,0.5h-2.4c0-0.1-0.1-0.2-0.1-0.4c0-0.2,0-0.4,0-0.6v-1
	c0-0.2,0-0.4-0.1-0.5c-0.1-0.1-0.2-0.3-0.3-0.3s-0.4-0.1-0.7-0.1h-1.8v-1.9h1.9c0.4,0,0.7-0.1,0.8-0.3c0.2-0.2,0.2-0.4,0.2-0.7
	c0-0.2,0-0.3-0.1-0.4c-0.1-0.1-0.1-0.2-0.2-0.3c-0.1-0.1-0.2-0.1-0.3-0.2s-0.3,0-0.4,0h-1.7v6.8H386z"/>
<path d="M398.4-45.1c-0.7,0-1.3-0.1-1.8-0.3c-0.5-0.2-1-0.5-1.4-0.9c-0.4-0.4-0.7-0.8-0.9-1.4c-0.2-0.6-0.3-1.2-0.3-1.9
	s0.1-1.4,0.3-1.9c0.2-0.6,0.5-1,0.9-1.4c0.4-0.4,0.9-0.7,1.4-0.9c0.5-0.2,1.2-0.3,1.8-0.3c0.8,0,1.5,0.1,2.1,0.4
	c0.6,0.3,1.1,0.6,1.5,1.1c0.4,0.5,0.6,1,0.6,1.7h-2.5c-0.1-0.2-0.2-0.4-0.3-0.6s-0.4-0.3-0.6-0.4c-0.2-0.1-0.5-0.1-0.8-0.1
	c-0.4,0-0.7,0.1-1,0.2s-0.5,0.4-0.7,0.8c-0.2,0.4-0.2,0.8-0.2,1.4c0,0.4,0,0.8,0.1,1.1c0.1,0.3,0.2,0.6,0.4,0.8
	c0.2,0.2,0.4,0.3,0.6,0.4s0.5,0.1,0.8,0.1c0.3,0,0.5,0,0.8-0.1c0.2-0.1,0.4-0.2,0.6-0.4s0.3-0.4,0.3-0.6h2.5
	c-0.1,0.6-0.3,1.2-0.7,1.7c-0.4,0.5-0.9,0.9-1.5,1.1C399.9-45.2,399.2-45.1,398.4-45.1z"/>
<path d="M403-45.2V-54h2.4v8.7H403z M404.9-48.6v-2.1h4.2v2.1H404.9z M408.7-45.2V-54h2.4v8.7H408.7z"/>
<g>
	<polygon class="st0" points="63.8,-30.9 62.5,-23.2 62.2,-23.2 60.9,-30.9 58.5,-41.8 45,-41.8 45,-10.7 53.4,-10.7 53.4,-24 
		53.2,-33.7 53.6,-33.7 55.5,-24.8 58.8,-10.7 65.9,-10.7 69.1,-24.6 71.1,-33.7 71.5,-33.7 71.2,-24 71.2,-10.7 79.6,-10.7 
		79.6,-41.8 66.1,-41.8 	"/>
	<path class="st0" d="M108.6-38.1c-1.4-1.4-3.1-2.4-5-3.1c-2-0.7-4.1-1-6.5-1c-2.4,0-4.6,0.4-6.5,1c-1.9,0.7-3.6,1.7-5,3.1
		c-1.4,1.4-2.5,3-3.2,5c-0.8,2-1.1,4.3-1.1,6.9s0.4,4.9,1.1,6.9c0.8,2,1.8,3.7,3.2,5c1.4,1.4,3.1,2.4,5,3.1c1.9,0.7,4.1,1,6.5,1
		c2.4,0,4.6-0.4,6.5-1c2-0.7,3.6-1.7,5-3.1c1.4-1.4,2.5-3,3.2-5c0.8-2,1.1-4.3,1.1-6.9s-0.4-4.9-1.1-6.9
		C111.1-35.1,110.1-36.8,108.6-38.1z M103.3-21.3c-0.6,1.3-1.4,2.2-2.5,2.8c-1.1,0.6-2.3,0.9-3.7,0.9c-1.1,0-2-0.2-2.9-0.5
		c-0.9-0.3-1.6-0.8-2.2-1.5c-0.6-0.7-1.1-1.6-1.4-2.7c-0.3-1.1-0.5-2.4-0.5-4c0-2.1,0.3-3.7,0.9-5c0.6-1.3,1.4-2.2,2.5-2.8
		c1.1-0.6,2.3-0.9,3.7-0.9c1.1,0,2,0.2,2.9,0.5c0.9,0.3,1.6,0.8,2.2,1.5c0.6,0.7,1.1,1.6,1.4,2.7c0.3,1.1,0.5,2.4,0.5,3.9
		C104.1-24.2,103.8-22.6,103.3-21.3z"/>
	<polygon class="st0" points="135,-32.2 135.3,-23 135,-23 125.1,-41.8 114.6,-41.8 114.6,-10.7 123.4,-10.7 123.4,-20.8 
		123.1,-29.1 123.4,-29.1 133.4,-10.7 143.3,-10.7 143.3,-41.8 135,-41.8 	"/>
	<path class="st0" d="M153.9-41.8l-9.7,31.1h9l1.5-5.6h10.7l1.5,5.6h9l-9.7-31.1H153.9z M156.5-22.8l2.3-8.5l1.1-4.1h0.3l1.1,4.1
		l2.3,8.5H156.5z"/>
	<path class="st0" d="M202.7-28.2c1.1-1.3,1.6-2.9,1.6-4.9c0-1.2-0.2-2.3-0.5-3.2c-0.3-0.9-0.8-1.8-1.4-2.5
		c-0.6-0.7-1.4-1.3-2.2-1.7c-0.9-0.5-1.8-0.8-2.9-1c-1.1-0.2-2.3-0.3-3.5-0.3h-16.9v31.1h8.7v-10.5h5.6c1.1,0,1.9,0.1,2.4,0.4
		s1,0.7,1.2,1.2c0.2,0.5,0.3,1.1,0.3,1.8v3.4c0,0.8,0,1.5,0.1,2.2c0.1,0.7,0.2,1.2,0.4,1.5h8.7c-0.3-0.6-0.4-1.3-0.5-1.9
		c0-0.6-0.1-1.2-0.1-1.8v-4.9c0-1.2-0.2-2.1-0.5-2.9c-0.4-0.8-0.9-1.5-1.7-2s-1.7-0.9-2.9-1.1v-0.3C200.3-26,201.7-26.9,202.7-28.2z
		 M194.6-29c-0.6,0.7-1.6,1-3,1h-6.1v-6.7h6.1c0.6,0,1.1,0.1,1.5,0.2c0.5,0.1,0.9,0.3,1.2,0.6c0.4,0.3,0.6,0.6,0.8,1
		c0.2,0.4,0.3,0.9,0.3,1.6C195.4-30.5,195.1-29.7,194.6-29z"/>
	<path class="st0" d="M217.3-34c1.1-0.6,2.3-0.9,3.7-0.9c1.1,0,2,0.2,2.8,0.5c0.8,0.3,1.5,0.8,2.1,1.4s1,1.3,1.2,2.1h8.8
		c-0.2-2.3-1-4.3-2.3-6c-1.3-1.7-3-3-5.2-4c-2.2-1-4.6-1.4-7.4-1.4c-2.4,0-4.6,0.4-6.5,1c-1.9,0.7-3.6,1.7-5,3.1
		c-1.4,1.4-2.5,3-3.2,5c-0.8,2-1.1,4.3-1.1,6.9s0.4,4.9,1.1,6.9c0.8,2,1.8,3.7,3.2,5c1.4,1.4,3.1,2.4,5,3.1c1.9,0.7,4.1,1,6.5,1
		c2.7,0,5.1-0.5,7.3-1.4c2.2-1,3.9-2.3,5.2-4c1.3-1.7,2.1-3.7,2.3-6h-8.8c-0.2,0.8-0.6,1.5-1.2,2.2c-0.6,0.6-1.3,1.1-2.2,1.4
		c-0.8,0.3-1.8,0.5-2.8,0.5c-1.1,0-2-0.2-2.9-0.5c-0.9-0.3-1.6-0.8-2.2-1.5c-0.6-0.7-1.1-1.6-1.4-2.7c-0.3-1.1-0.5-2.4-0.5-4
		c0-2.1,0.3-3.7,0.9-5C215.4-32.5,216.3-33.5,217.3-34z"/>
	<polygon class="st0" points="257.7,-41.8 257.7,-30.1 245.8,-30.1 245.8,-41.8 237.2,-41.8 237.2,-10.7 245.8,-10.7 245.8,-22.8 
		257.7,-22.8 257.7,-10.7 266.4,-10.7 266.4,-41.8 	"/>
</g>
<g>
	<g>
		<path class="st0" d="M323.9-4v-4.7h2.1l0.4,1.7l0.2,1.2h0.1l0.2-1.2l0.4-1.7h2.1V-4h-1.3v-2l0-1.5h-0.1l-0.3,1.4L327.1-4H326
			l-0.5-2.2l-0.3-1.3h-0.1l0,1.5v2H323.9z"/>
	</g>
	<g>
		<path class="st0" d="M329.1-1.5h-5c-1.3,0-2.4-1.1-2.4-2.4v-5c0-1.3,1.1-2.4,2.4-2.4h5c1.3,0,2.4,1.1,2.4,2.4v5
			C331.5-2.5,330.4-1.5,329.1-1.5z M324.1-10.4c-0.8,0-1.5,0.7-1.5,1.5v5c0,0.8,0.7,1.5,1.5,1.5h5c0.8,0,1.5-0.7,1.5-1.5v-5
			c0-0.8-0.7-1.5-1.5-1.5H324.1z"/>
	</g>
</g>
<g>
	<polygon class="st1" points="18.8,11.4 17.6,19.1 17.2,19.1 15.9,11.4 13.5,0.4 0,0.4 0,31.6 8.5,31.6 8.5,18.2 8.2,8.6 8.6,8.6 
		10.6,17.4 13.8,31.6 20.9,31.6 24.2,17.6 26.1,8.6 26.5,8.6 26.3,18.2 26.3,31.6 34.6,31.6 34.6,0.4 21.1,0.4 	"/>
	<path class="st1" d="M63.7,4.1c-1.4-1.4-3.1-2.4-5-3.1c-2-0.7-4.1-1-6.5-1c-2.4,0-4.6,0.4-6.5,1c-1.9,0.7-3.6,1.7-5,3.1
		c-1.4,1.4-2.5,3-3.2,5c-0.8,2-1.1,4.3-1.1,6.9s0.4,4.9,1.1,6.9c0.8,2,1.8,3.7,3.2,5c1.4,1.4,3.1,2.4,5,3.1c1.9,0.7,4.1,1,6.5,1
		c2.4,0,4.6-0.4,6.5-1c2-0.7,3.6-1.7,5-3.1c1.4-1.4,2.5-3,3.2-5c0.8-2,1.1-4.3,1.1-6.9s-0.4-4.9-1.1-6.9C66.2,7.1,65.1,5.5,63.7,4.1
		z M58.3,21c-0.6,1.3-1.4,2.2-2.5,2.8s-2.3,0.9-3.7,0.9c-1.1,0-2-0.2-2.9-0.5s-1.6-0.8-2.2-1.5C46.4,22,46,21.1,45.6,20
		c-0.3-1.1-0.5-2.4-0.5-4c0-2.1,0.3-3.7,0.9-5c0.6-1.3,1.4-2.2,2.5-2.8s2.3-0.9,3.7-0.9c1.1,0,2,0.2,2.9,0.5
		c0.9,0.3,1.6,0.8,2.2,1.5c0.6,0.7,1.1,1.6,1.4,2.7c0.3,1.1,0.5,2.4,0.5,3.9C59.2,18,58.9,19.7,58.3,21z"/>
	<polygon class="st1" points="90,10 90.3,19.2 90.1,19.2 80.1,0.4 69.6,0.4 69.6,31.6 78.5,31.6 78.5,21.5 78.2,13.2 78.4,13.2 
		88.5,31.6 98.3,31.6 98.3,0.4 90,0.4 	"/>
	<path class="st1" d="M108.9,0.4l-9.7,31.1h9l1.5-5.6h10.7l1.5,5.6h9l-9.7-31.1H108.9z M111.5,19.4l2.3-8.5l1.1-4.1h0.3l1.1,4.1
		l2.3,8.5H111.5z"/>
	<path class="st1" d="M157.8,14c1.1-1.3,1.6-2.9,1.6-4.9c0-1.2-0.2-2.3-0.5-3.2c-0.3-0.9-0.8-1.8-1.4-2.5c-0.6-0.7-1.4-1.3-2.2-1.7
		c-0.9-0.5-1.8-0.8-2.9-1c-1.1-0.2-2.3-0.3-3.5-0.3h-16.9v31.1h8.7V21.1h5.6c1.1,0,1.9,0.1,2.4,0.4c0.6,0.3,1,0.7,1.2,1.2
		c0.2,0.5,0.3,1.1,0.3,1.8v3.4c0,0.8,0,1.5,0.1,2.2c0.1,0.7,0.2,1.2,0.4,1.5h8.7c-0.3-0.6-0.4-1.3-0.5-1.9c0-0.6-0.1-1.2-0.1-1.8V23
		c0-1.2-0.2-2.1-0.5-2.9c-0.4-0.8-0.9-1.5-1.7-2c-0.8-0.5-1.7-0.9-2.9-1.1v-0.3C155.3,16.3,156.7,15.4,157.8,14z M149.6,13.3
		c-0.6,0.7-1.6,1-3,1h-6.1V7.5h6.1c0.6,0,1.1,0.1,1.5,0.2c0.5,0.1,0.9,0.3,1.2,0.6c0.4,0.3,0.6,0.6,0.8,1c0.2,0.4,0.3,0.9,0.3,1.6
		C150.5,11.8,150.2,12.6,149.6,13.3z"/>
	<path class="st1" d="M172.3,8.2c1.1-0.6,2.3-0.9,3.7-0.9c1.1,0,2,0.2,2.8,0.5c0.8,0.3,1.5,0.8,2.1,1.4c0.6,0.6,1,1.3,1.2,2.1h8.8
		c-0.2-2.3-1-4.3-2.3-6c-1.3-1.7-3-3-5.2-4c-2.2-1-4.6-1.4-7.4-1.4c-2.4,0-4.6,0.4-6.5,1c-1.9,0.7-3.6,1.7-5,3.1
		c-1.4,1.4-2.5,3-3.2,5c-0.8,2-1.1,4.3-1.1,6.9s0.4,4.9,1.1,6.9c0.8,2,1.8,3.7,3.2,5c1.4,1.4,3.1,2.4,5,3.1c1.9,0.7,4.1,1,6.5,1
		c2.7,0,5.1-0.5,7.3-1.4c2.2-1,3.9-2.3,5.2-4c1.3-1.7,2.1-3.7,2.3-6h-8.8c-0.2,0.8-0.6,1.5-1.2,2.2c-0.6,0.6-1.3,1.1-2.2,1.4
		c-0.8,0.3-1.8,0.5-2.8,0.5c-1.1,0-2-0.2-2.9-0.5s-1.6-0.8-2.2-1.5c-0.6-0.7-1.1-1.6-1.4-2.7c-0.3-1.1-0.5-2.4-0.5-4
		c0-2.1,0.3-3.7,0.9-5C170.5,9.7,171.3,8.8,172.3,8.2z"/>
	<polygon class="st1" points="212.8,0.4 212.8,12.1 200.9,12.1 200.9,0.4 192.2,0.4 192.2,31.6 200.9,31.6 200.9,19.5 212.8,19.5 
		212.8,31.6 221.4,31.6 221.4,0.4 	"/>
</g>
<g>
	<g>
		<path class="st1" d="M305.5,53.3V37.8h6.7l1.2,5.4l0.7,3.8h0.2l0.6-3.8l1.1-5.4h6.7v15.5h-4.2v-6.6l0.1-4.8h-0.2l-1,4.5l-1.6,6.9
			h-3.5l-1.6-7l-1-4.4h-0.2l0.1,4.8v6.6H305.5z"/>
	</g>
	<g>
		<path class="st1" d="M322.3,61.6H306c-4.3,0-7.9-3.5-7.9-7.9V37.4c0-4.3,3.5-7.9,7.9-7.9h16.3c4.3,0,7.9,3.5,7.9,7.9v16.3
			C330.1,58,326.6,61.6,322.3,61.6z M306,32.5c-2.8,0-5,2.2-5,5v16.3c0,2.8,2.2,5,5,5h16.3c2.8,0,5-2.2,5-5V37.4c0-2.8-2.2-5-5-5
			H306z"/>
	</g>
</g>
</svg>
